G75*
%MOIN*%
%OFA0B0*%
%FSLAX24Y24*%
%IPPOS*%
%LPD*%
%AMOC8*
5,1,8,0,0,1.08239X$1,22.5*
%
%ADD10C,0.0000*%
%ADD11C,0.0000*%
%ADD12C,0.0050*%
%ADD13C,0.0040*%
%ADD14R,0.0400X0.0010*%
%ADD15R,0.0760X0.0010*%
%ADD16R,0.0960X0.0010*%
%ADD17R,0.1030X0.0010*%
%ADD18R,0.1120X0.0010*%
%ADD19R,0.1190X0.0010*%
%ADD20R,0.1220X0.0010*%
%ADD21R,0.1260X0.0010*%
%ADD22R,0.1300X0.0010*%
%ADD23R,0.1320X0.0010*%
%ADD24R,0.1350X0.0010*%
%ADD25R,0.1370X0.0010*%
%ADD26R,0.1380X0.0010*%
%ADD27R,0.1400X0.0010*%
%ADD28R,0.1420X0.0010*%
%ADD29R,0.0600X0.0010*%
%ADD30R,0.0610X0.0010*%
%ADD31R,0.0420X0.0010*%
%ADD32R,0.0330X0.0010*%
%ADD33R,0.0360X0.0010*%
%ADD34R,0.0320X0.0010*%
%ADD35R,0.0280X0.0010*%
%ADD36R,0.0300X0.0010*%
%ADD37R,0.0260X0.0010*%
%ADD38R,0.0270X0.0010*%
%ADD39R,0.0240X0.0010*%
%ADD40R,0.0250X0.0010*%
%ADD41R,0.0230X0.0010*%
%ADD42R,0.0220X0.0010*%
%ADD43R,0.0210X0.0010*%
%ADD44R,0.0200X0.0010*%
%ADD45R,0.0190X0.0010*%
%ADD46R,0.0180X0.0010*%
%ADD47R,0.0170X0.0010*%
%ADD48R,0.0480X0.0010*%
%ADD49R,0.1410X0.0010*%
%ADD50R,0.1390X0.0010*%
%ADD51R,0.1360X0.0010*%
%ADD52R,0.1330X0.0010*%
%ADD53R,0.1310X0.0010*%
%ADD54R,0.1210X0.0010*%
%ADD55R,0.1160X0.0010*%
%ADD56R,0.1090X0.0010*%
%ADD57R,0.0970X0.0010*%
%ADD58R,0.0840X0.0010*%
%ADD59R,0.0660X0.0010*%
%ADD60R,0.0050X0.0010*%
%ADD61R,0.0790X0.0010*%
%ADD62R,0.0800X0.0010*%
%ADD63R,0.0780X0.0010*%
%ADD64R,0.0310X0.0010*%
%ADD65R,0.0290X0.0010*%
%ADD66R,0.0150X0.0010*%
%ADD67R,0.0160X0.0010*%
%ADD68R,0.0140X0.0010*%
%ADD69R,0.0130X0.0010*%
%ADD70R,0.0640X0.0010*%
%ADD71R,0.0590X0.0010*%
%ADD72R,0.0560X0.0010*%
%ADD73R,0.0540X0.0010*%
%ADD74R,0.0500X0.0010*%
%ADD75R,0.0470X0.0010*%
%ADD76R,0.0430X0.0010*%
%ADD77R,0.0030X0.0010*%
%ADD78R,0.0040X0.0010*%
%ADD79R,0.0020X0.0010*%
D10*
X000544Y001887D02*
X000424Y002160D01*
X000247Y002686D01*
X000188Y002932D01*
X000544Y001887D02*
X000748Y001886D01*
X001054Y001754D01*
X001054Y001755D02*
X001108Y001796D01*
X001165Y001834D01*
X001224Y001868D01*
X001285Y001899D01*
X001347Y001927D01*
X001411Y001951D01*
X001476Y001972D01*
X001542Y001989D01*
X001608Y002003D01*
X001676Y002012D01*
X001744Y002018D01*
X001812Y002020D01*
X001880Y002018D01*
X001948Y002013D01*
X002016Y002003D01*
X002015Y002003D02*
X002086Y002002D01*
X002156Y001998D01*
X002226Y001989D01*
X002295Y001977D01*
X002364Y001962D01*
X002431Y001942D01*
X002498Y001919D01*
X002563Y001893D01*
X002626Y001863D01*
X002688Y001829D01*
X002748Y001792D01*
X002806Y001752D01*
X002862Y001709D01*
X002915Y001663D01*
X002966Y001614D01*
X003014Y001563D01*
X003059Y001509D01*
X003101Y001452D01*
X003140Y001394D01*
X003175Y001333D01*
X003208Y001271D01*
X003237Y001207D01*
X003262Y001141D01*
X003284Y001074D01*
X003302Y001006D01*
X003317Y000937D01*
X003328Y000868D01*
X003335Y000798D01*
X003338Y000728D01*
X003464Y000507D01*
X003464Y000506D02*
X003567Y000438D01*
X003804Y000291D01*
X003973Y000176D01*
X006329Y002125D02*
X006518Y002821D01*
X006518Y014243D01*
D11*
X006519Y014242D02*
X006474Y014248D01*
X006430Y014256D01*
X006387Y014269D01*
X006346Y014284D01*
X006305Y014304D01*
X006267Y014326D01*
X006230Y014352D01*
X006196Y014380D01*
X006164Y014412D01*
X006134Y014446D01*
X006108Y014482D01*
X006085Y014520D01*
X006065Y014560D01*
X006048Y014601D01*
X006035Y014644D01*
X006025Y014688D01*
X006019Y014732D01*
X006017Y014777D01*
X006018Y014821D01*
X006018Y014817D01*
X006018Y014822D02*
X006015Y014834D01*
X006008Y014846D01*
X006000Y014855D01*
X005989Y014863D01*
X005977Y014868D01*
X005964Y014870D01*
X005951Y014869D01*
X000861Y014869D01*
X000843Y014870D01*
X000826Y014867D01*
X000809Y014862D01*
X000794Y014853D01*
X000781Y014841D01*
X000770Y014827D01*
X000762Y014811D01*
X000758Y014794D01*
X000928Y014046D02*
X000930Y014071D01*
X000936Y014095D01*
X000945Y014117D01*
X000958Y014138D01*
X000974Y014157D01*
X000993Y014173D01*
X001014Y014186D01*
X001036Y014195D01*
X001060Y014201D01*
X001085Y014203D01*
X001110Y014201D01*
X001134Y014195D01*
X001156Y014186D01*
X001177Y014173D01*
X001196Y014157D01*
X001212Y014138D01*
X001225Y014117D01*
X001234Y014095D01*
X001240Y014071D01*
X001242Y014046D01*
X001240Y014021D01*
X001234Y013997D01*
X001225Y013975D01*
X001212Y013954D01*
X001196Y013935D01*
X001177Y013919D01*
X001156Y013906D01*
X001134Y013897D01*
X001110Y013891D01*
X001085Y013889D01*
X001060Y013891D01*
X001036Y013897D01*
X001014Y013906D01*
X000993Y013919D01*
X000974Y013935D01*
X000958Y013954D01*
X000945Y013975D01*
X000936Y013997D01*
X000930Y014021D01*
X000928Y014046D01*
X000928Y013888D02*
X000930Y013913D01*
X000936Y013937D01*
X000945Y013959D01*
X000958Y013980D01*
X000974Y013999D01*
X000993Y014015D01*
X001014Y014028D01*
X001036Y014037D01*
X001060Y014043D01*
X001085Y014045D01*
X001110Y014043D01*
X001134Y014037D01*
X001156Y014028D01*
X001177Y014015D01*
X001196Y013999D01*
X001212Y013980D01*
X001225Y013959D01*
X001234Y013937D01*
X001240Y013913D01*
X001242Y013888D01*
X001240Y013863D01*
X001234Y013839D01*
X001225Y013817D01*
X001212Y013796D01*
X001196Y013777D01*
X001177Y013761D01*
X001156Y013748D01*
X001134Y013739D01*
X001110Y013733D01*
X001085Y013731D01*
X001060Y013733D01*
X001036Y013739D01*
X001014Y013748D01*
X000993Y013761D01*
X000974Y013777D01*
X000958Y013796D01*
X000945Y013817D01*
X000936Y013839D01*
X000930Y013863D01*
X000928Y013888D01*
X000928Y013573D02*
X000930Y013598D01*
X000936Y013622D01*
X000945Y013644D01*
X000958Y013665D01*
X000974Y013684D01*
X000993Y013700D01*
X001014Y013713D01*
X001036Y013722D01*
X001060Y013728D01*
X001085Y013730D01*
X001110Y013728D01*
X001134Y013722D01*
X001156Y013713D01*
X001177Y013700D01*
X001196Y013684D01*
X001212Y013665D01*
X001225Y013644D01*
X001234Y013622D01*
X001240Y013598D01*
X001242Y013573D01*
X001240Y013548D01*
X001234Y013524D01*
X001225Y013502D01*
X001212Y013481D01*
X001196Y013462D01*
X001177Y013446D01*
X001156Y013433D01*
X001134Y013424D01*
X001110Y013418D01*
X001085Y013416D01*
X001060Y013418D01*
X001036Y013424D01*
X001014Y013433D01*
X000993Y013446D01*
X000974Y013462D01*
X000958Y013481D01*
X000945Y013502D01*
X000936Y013524D01*
X000930Y013548D01*
X000928Y013573D01*
X000928Y013416D02*
X000930Y013441D01*
X000936Y013465D01*
X000945Y013487D01*
X000958Y013508D01*
X000974Y013527D01*
X000993Y013543D01*
X001014Y013556D01*
X001036Y013565D01*
X001060Y013571D01*
X001085Y013573D01*
X001110Y013571D01*
X001134Y013565D01*
X001156Y013556D01*
X001177Y013543D01*
X001196Y013527D01*
X001212Y013508D01*
X001225Y013487D01*
X001234Y013465D01*
X001240Y013441D01*
X001242Y013416D01*
X001240Y013391D01*
X001234Y013367D01*
X001225Y013345D01*
X001212Y013324D01*
X001196Y013305D01*
X001177Y013289D01*
X001156Y013276D01*
X001134Y013267D01*
X001110Y013261D01*
X001085Y013259D01*
X001060Y013261D01*
X001036Y013267D01*
X001014Y013276D01*
X000993Y013289D01*
X000974Y013305D01*
X000958Y013324D01*
X000945Y013345D01*
X000936Y013367D01*
X000930Y013391D01*
X000928Y013416D01*
X000188Y014247D02*
X000188Y002932D01*
X002286Y013703D02*
X002288Y013732D01*
X002294Y013760D01*
X002303Y013788D01*
X002316Y013814D01*
X002333Y013837D01*
X002352Y013859D01*
X002374Y013878D01*
X002399Y013893D01*
X002425Y013906D01*
X002453Y013914D01*
X002481Y013919D01*
X002510Y013920D01*
X002539Y013917D01*
X002567Y013910D01*
X002594Y013900D01*
X002620Y013886D01*
X002643Y013869D01*
X002664Y013849D01*
X002682Y013826D01*
X002697Y013801D01*
X002708Y013774D01*
X002716Y013746D01*
X002720Y013717D01*
X002720Y013689D01*
X002716Y013660D01*
X002708Y013632D01*
X002697Y013605D01*
X002682Y013580D01*
X002664Y013557D01*
X002643Y013537D01*
X002620Y013520D01*
X002594Y013506D01*
X002567Y013496D01*
X002539Y013489D01*
X002510Y013486D01*
X002481Y013487D01*
X002453Y013492D01*
X002425Y013500D01*
X002399Y013513D01*
X002374Y013528D01*
X002352Y013547D01*
X002333Y013569D01*
X002316Y013592D01*
X002303Y013618D01*
X002294Y013646D01*
X002288Y013674D01*
X002286Y013703D01*
X004057Y013703D02*
X004059Y013732D01*
X004065Y013760D01*
X004074Y013788D01*
X004087Y013814D01*
X004104Y013837D01*
X004123Y013859D01*
X004145Y013878D01*
X004170Y013893D01*
X004196Y013906D01*
X004224Y013914D01*
X004252Y013919D01*
X004281Y013920D01*
X004310Y013917D01*
X004338Y013910D01*
X004365Y013900D01*
X004391Y013886D01*
X004414Y013869D01*
X004435Y013849D01*
X004453Y013826D01*
X004468Y013801D01*
X004479Y013774D01*
X004487Y013746D01*
X004491Y013717D01*
X004491Y013689D01*
X004487Y013660D01*
X004479Y013632D01*
X004468Y013605D01*
X004453Y013580D01*
X004435Y013557D01*
X004414Y013537D01*
X004391Y013520D01*
X004365Y013506D01*
X004338Y013496D01*
X004310Y013489D01*
X004281Y013486D01*
X004252Y013487D01*
X004224Y013492D01*
X004196Y013500D01*
X004170Y013513D01*
X004145Y013528D01*
X004123Y013547D01*
X004104Y013569D01*
X004087Y013592D01*
X004074Y013618D01*
X004065Y013646D01*
X004059Y013674D01*
X004057Y013703D01*
X005534Y013573D02*
X005536Y013598D01*
X005542Y013622D01*
X005551Y013644D01*
X005564Y013665D01*
X005580Y013684D01*
X005599Y013700D01*
X005620Y013713D01*
X005642Y013722D01*
X005666Y013728D01*
X005691Y013730D01*
X005716Y013728D01*
X005740Y013722D01*
X005762Y013713D01*
X005783Y013700D01*
X005802Y013684D01*
X005818Y013665D01*
X005831Y013644D01*
X005840Y013622D01*
X005846Y013598D01*
X005848Y013573D01*
X005846Y013548D01*
X005840Y013524D01*
X005831Y013502D01*
X005818Y013481D01*
X005802Y013462D01*
X005783Y013446D01*
X005762Y013433D01*
X005740Y013424D01*
X005716Y013418D01*
X005691Y013416D01*
X005666Y013418D01*
X005642Y013424D01*
X005620Y013433D01*
X005599Y013446D01*
X005580Y013462D01*
X005564Y013481D01*
X005551Y013502D01*
X005542Y013524D01*
X005536Y013548D01*
X005534Y013573D01*
X005534Y013416D02*
X005536Y013441D01*
X005542Y013465D01*
X005551Y013487D01*
X005564Y013508D01*
X005580Y013527D01*
X005599Y013543D01*
X005620Y013556D01*
X005642Y013565D01*
X005666Y013571D01*
X005691Y013573D01*
X005716Y013571D01*
X005740Y013565D01*
X005762Y013556D01*
X005783Y013543D01*
X005802Y013527D01*
X005818Y013508D01*
X005831Y013487D01*
X005840Y013465D01*
X005846Y013441D01*
X005848Y013416D01*
X005846Y013391D01*
X005840Y013367D01*
X005831Y013345D01*
X005818Y013324D01*
X005802Y013305D01*
X005783Y013289D01*
X005762Y013276D01*
X005740Y013267D01*
X005716Y013261D01*
X005691Y013259D01*
X005666Y013261D01*
X005642Y013267D01*
X005620Y013276D01*
X005599Y013289D01*
X005580Y013305D01*
X005564Y013324D01*
X005551Y013345D01*
X005542Y013367D01*
X005536Y013391D01*
X005534Y013416D01*
X005534Y013888D02*
X005536Y013913D01*
X005542Y013937D01*
X005551Y013959D01*
X005564Y013980D01*
X005580Y013999D01*
X005599Y014015D01*
X005620Y014028D01*
X005642Y014037D01*
X005666Y014043D01*
X005691Y014045D01*
X005716Y014043D01*
X005740Y014037D01*
X005762Y014028D01*
X005783Y014015D01*
X005802Y013999D01*
X005818Y013980D01*
X005831Y013959D01*
X005840Y013937D01*
X005846Y013913D01*
X005848Y013888D01*
X005846Y013863D01*
X005840Y013839D01*
X005831Y013817D01*
X005818Y013796D01*
X005802Y013777D01*
X005783Y013761D01*
X005762Y013748D01*
X005740Y013739D01*
X005716Y013733D01*
X005691Y013731D01*
X005666Y013733D01*
X005642Y013739D01*
X005620Y013748D01*
X005599Y013761D01*
X005580Y013777D01*
X005564Y013796D01*
X005551Y013817D01*
X005542Y013839D01*
X005536Y013863D01*
X005534Y013888D01*
X005534Y014046D02*
X005536Y014071D01*
X005542Y014095D01*
X005551Y014117D01*
X005564Y014138D01*
X005580Y014157D01*
X005599Y014173D01*
X005620Y014186D01*
X005642Y014195D01*
X005666Y014201D01*
X005691Y014203D01*
X005716Y014201D01*
X005740Y014195D01*
X005762Y014186D01*
X005783Y014173D01*
X005802Y014157D01*
X005818Y014138D01*
X005831Y014117D01*
X005840Y014095D01*
X005846Y014071D01*
X005848Y014046D01*
X005846Y014021D01*
X005840Y013997D01*
X005831Y013975D01*
X005818Y013954D01*
X005802Y013935D01*
X005783Y013919D01*
X005762Y013906D01*
X005740Y013897D01*
X005716Y013891D01*
X005691Y013889D01*
X005666Y013891D01*
X005642Y013897D01*
X005620Y013906D01*
X005599Y013919D01*
X005580Y013935D01*
X005564Y013954D01*
X005551Y013975D01*
X005542Y013997D01*
X005536Y014021D01*
X005534Y014046D01*
X006329Y002125D02*
X006299Y002028D01*
X006266Y001932D01*
X006229Y001837D01*
X006188Y001744D01*
X006144Y001652D01*
X006097Y001562D01*
X006046Y001474D01*
X005992Y001388D01*
X005934Y001304D01*
X005874Y001222D01*
X005811Y001142D01*
X005744Y001065D01*
X005675Y000991D01*
X005603Y000919D01*
X005528Y000850D01*
X005451Y000784D01*
X005371Y000720D01*
X005289Y000660D01*
X005205Y000603D01*
X005119Y000549D01*
X005030Y000499D01*
X004940Y000451D01*
X004848Y000408D01*
X004755Y000367D01*
X004660Y000330D01*
X004564Y000297D01*
X004467Y000268D01*
X004368Y000242D01*
X004269Y000220D01*
X004169Y000202D01*
X004068Y000187D01*
X003967Y000176D01*
X000187Y014247D02*
X000233Y014248D01*
X000279Y014253D01*
X000325Y014261D01*
X000369Y014274D01*
X000413Y014289D01*
X000455Y014309D01*
X000495Y014332D01*
X000533Y014358D01*
X000569Y014387D01*
X000602Y014419D01*
X000633Y014453D01*
X000660Y014490D01*
X000685Y014530D01*
X000706Y014571D01*
X000724Y014613D01*
X000738Y014657D01*
X000748Y014702D01*
X000755Y014748D01*
X000758Y014794D01*
D12*
X004738Y009815D02*
X004865Y009689D01*
X004897Y009720D01*
X004897Y009784D01*
X004865Y009815D01*
X004738Y009815D01*
X004706Y009784D01*
X004706Y009720D01*
X004738Y009689D01*
X004865Y009689D01*
X006001Y017578D02*
X006032Y017609D01*
X006032Y017641D01*
X006001Y017673D01*
X005842Y017673D01*
X005842Y017704D02*
X005842Y017641D01*
X005906Y017799D02*
X005842Y017862D01*
X006032Y017862D01*
X006032Y017799D02*
X006032Y017925D01*
D13*
X005359Y011467D02*
X005205Y011467D01*
X005129Y011391D01*
X005129Y011314D01*
X005205Y011160D01*
X004975Y011160D01*
X004975Y011467D01*
X005052Y011007D02*
X004975Y010930D01*
X004975Y010700D01*
X005436Y010700D01*
X005282Y010854D02*
X005436Y011007D01*
X005359Y011160D02*
X005436Y011237D01*
X005436Y011391D01*
X005359Y011467D01*
X005205Y011007D02*
X005282Y010930D01*
X005282Y010700D01*
X005205Y011007D02*
X005052Y011007D01*
X002324Y003849D02*
X002324Y003542D01*
X002017Y003849D01*
X001941Y003849D01*
X001864Y003773D01*
X001864Y003619D01*
X001941Y003542D01*
X001941Y003389D02*
X001864Y003312D01*
X001864Y003159D01*
X001941Y003082D01*
X002248Y003082D01*
X002324Y003159D01*
X002324Y003312D01*
X002248Y003389D01*
X001100Y003324D02*
X001023Y003401D01*
X001100Y003324D02*
X001100Y003171D01*
X001023Y003094D01*
X000716Y003094D01*
X000639Y003171D01*
X000639Y003324D01*
X000716Y003401D01*
X000793Y003554D02*
X000639Y003708D01*
X001100Y003708D01*
X001100Y003861D02*
X001100Y003554D01*
X001094Y008219D02*
X000940Y008372D01*
X001017Y008372D02*
X000787Y008372D01*
X000787Y008219D02*
X000787Y008679D01*
X001017Y008679D01*
X001094Y008603D01*
X001094Y008449D01*
X001017Y008372D01*
X001247Y008219D02*
X001554Y008526D01*
X001554Y008603D01*
X001477Y008679D01*
X001324Y008679D01*
X001247Y008603D01*
X001247Y008219D02*
X001554Y008219D01*
X001566Y009475D02*
X001259Y009475D01*
X001105Y009475D02*
X000952Y009628D01*
X001029Y009628D02*
X000799Y009628D01*
X000799Y009475D02*
X000799Y009935D01*
X001029Y009935D01*
X001105Y009859D01*
X001105Y009705D01*
X001029Y009628D01*
X001259Y009782D02*
X001412Y009935D01*
X001412Y009475D01*
X000811Y011665D02*
X000887Y011741D01*
X000887Y011895D01*
X000811Y011972D01*
X000811Y012125D02*
X000887Y012202D01*
X000887Y012355D01*
X000811Y012432D01*
X000734Y012432D01*
X000657Y012355D01*
X000657Y012279D01*
X000657Y012355D02*
X000580Y012432D01*
X000504Y012432D01*
X000427Y012355D01*
X000427Y012202D01*
X000504Y012125D01*
X000504Y011972D02*
X000427Y011895D01*
X000427Y011741D01*
X000504Y011665D01*
X000811Y011665D01*
D14*
X004679Y002459D03*
X005179Y002299D03*
D15*
X004659Y002449D03*
X004619Y001359D03*
D16*
X004669Y002439D03*
D17*
X004664Y002429D03*
D18*
X004669Y002419D03*
D19*
X004664Y002409D03*
D20*
X004669Y002399D03*
D21*
X004659Y002389D03*
X004659Y001509D03*
D22*
X004659Y002379D03*
D23*
X004659Y002369D03*
D24*
X004664Y002359D03*
D25*
X004664Y002349D03*
D26*
X004659Y002339D03*
D27*
X004659Y002329D03*
D28*
X004659Y002319D03*
D29*
X005069Y002309D03*
D30*
X004624Y001259D03*
X004254Y002309D03*
D31*
X004149Y002299D03*
X004129Y001579D03*
X004609Y001189D03*
X005139Y001569D03*
D32*
X005204Y001589D03*
X005214Y002289D03*
X004094Y002279D03*
D33*
X004109Y002289D03*
X004099Y001589D03*
X004639Y001179D03*
X005179Y001579D03*
D34*
X005229Y002279D03*
X004069Y001599D03*
D35*
X004039Y001619D03*
X004059Y002259D03*
X004609Y001299D03*
X005229Y001599D03*
X005249Y002269D03*
D36*
X004079Y002269D03*
X004049Y001609D03*
D37*
X004019Y001639D03*
X004009Y001649D03*
X004619Y001169D03*
X005269Y002249D03*
X005259Y002259D03*
D38*
X005244Y001609D03*
X004614Y001329D03*
X004614Y001319D03*
X004614Y001309D03*
X004024Y001629D03*
X004054Y002249D03*
D39*
X004029Y002219D03*
X003999Y001659D03*
X005269Y001629D03*
X005279Y002239D03*
D40*
X005254Y001619D03*
X004044Y002239D03*
X004034Y002229D03*
D41*
X004024Y002209D03*
X004014Y002199D03*
X004014Y002189D03*
X003984Y001699D03*
X003984Y001689D03*
X003994Y001679D03*
X003994Y001669D03*
X005274Y001639D03*
X005284Y002229D03*
D42*
X005289Y002219D03*
X005289Y001649D03*
X004329Y001409D03*
X004009Y002179D03*
X003979Y001719D03*
X003979Y001709D03*
D43*
X003974Y001729D03*
X003974Y001739D03*
X003974Y001749D03*
X003974Y001759D03*
X003974Y001769D03*
X003974Y001779D03*
X003994Y002119D03*
X003994Y002129D03*
X004004Y002149D03*
X004004Y002159D03*
X004004Y002169D03*
X005294Y002199D03*
X005294Y002209D03*
X005304Y002189D03*
X005294Y001669D03*
X005294Y001659D03*
D44*
X005299Y001679D03*
X005319Y002119D03*
X005309Y002159D03*
X005309Y002169D03*
X005309Y002179D03*
X004899Y001349D03*
X003969Y001789D03*
X003969Y001799D03*
X003969Y001809D03*
X003969Y001819D03*
X003969Y001829D03*
X003969Y001839D03*
X003969Y001849D03*
X003969Y001859D03*
X003969Y001869D03*
X003969Y001879D03*
X003969Y001889D03*
X003969Y001899D03*
X003969Y001909D03*
X003969Y001919D03*
X003979Y001949D03*
X003979Y001959D03*
X003979Y001969D03*
X003979Y001979D03*
X003979Y001989D03*
X003979Y001999D03*
X003979Y002009D03*
X003979Y002019D03*
X003979Y002029D03*
X003979Y002039D03*
X003989Y002069D03*
X003989Y002079D03*
X003989Y002089D03*
X003989Y002099D03*
X003989Y002109D03*
X003999Y002139D03*
D45*
X003984Y002059D03*
X003984Y002049D03*
X003974Y001939D03*
X003974Y001929D03*
X005304Y001689D03*
X005314Y001699D03*
X005314Y001709D03*
X005324Y001739D03*
X005324Y002069D03*
X005324Y002079D03*
X005324Y002089D03*
X005324Y002099D03*
X005324Y002109D03*
X005314Y002129D03*
X005314Y002139D03*
X005314Y002149D03*
D46*
X005329Y002059D03*
X005329Y002049D03*
X005329Y002039D03*
X005329Y002029D03*
X005329Y002019D03*
X005329Y002009D03*
X005329Y001999D03*
X005329Y001989D03*
X005329Y001979D03*
X005329Y001969D03*
X005329Y001959D03*
X005329Y001949D03*
X005329Y001939D03*
X005329Y001929D03*
X005329Y001809D03*
X005329Y001799D03*
X005329Y001789D03*
X005329Y001779D03*
X005329Y001769D03*
X005329Y001759D03*
X005329Y001749D03*
X005319Y001729D03*
X005319Y001719D03*
D47*
X005334Y001819D03*
X005334Y001829D03*
X005334Y001839D03*
X005334Y001849D03*
X005334Y001859D03*
X005334Y001869D03*
X005334Y001879D03*
X005334Y001889D03*
X005334Y001899D03*
X005334Y001909D03*
X005334Y001919D03*
X004904Y001339D03*
X004324Y001349D03*
D48*
X004169Y001569D03*
X004529Y001279D03*
D49*
X004644Y001559D03*
D50*
X004644Y001549D03*
D51*
X004649Y001539D03*
D52*
X004654Y001529D03*
D53*
X004654Y001519D03*
D54*
X004664Y001499D03*
D55*
X004669Y001489D03*
D56*
X004684Y001479D03*
D57*
X004704Y001469D03*
D58*
X004729Y001459D03*
D59*
X004749Y001449D03*
D60*
X004244Y001419D03*
D61*
X004614Y001399D03*
D62*
X004619Y001389D03*
D63*
X004619Y001379D03*
X004619Y001369D03*
D64*
X004624Y001349D03*
D65*
X004614Y001339D03*
X004604Y001289D03*
D66*
X004324Y001329D03*
X004324Y001339D03*
X004904Y001319D03*
D67*
X004909Y001329D03*
X004619Y001159D03*
D68*
X004879Y001279D03*
X004889Y001289D03*
X004899Y001299D03*
X004899Y001309D03*
X004329Y001319D03*
D69*
X004334Y001309D03*
X004334Y001299D03*
X004344Y001289D03*
D70*
X004619Y001269D03*
D71*
X004624Y001249D03*
D72*
X004619Y001239D03*
D73*
X004619Y001229D03*
D74*
X004619Y001219D03*
D75*
X004624Y001209D03*
D76*
X004614Y001199D03*
D77*
X004414Y001179D03*
X004374Y001129D03*
X004354Y001099D03*
X004814Y001159D03*
X004824Y001139D03*
X004844Y001109D03*
X004854Y001099D03*
X004864Y001079D03*
D78*
X004859Y001089D03*
X004839Y001119D03*
X004829Y001129D03*
X004819Y001149D03*
X004809Y001169D03*
X004409Y001169D03*
X004399Y001159D03*
X004389Y001149D03*
X004379Y001139D03*
X004369Y001119D03*
X004359Y001109D03*
D79*
X004349Y001089D03*
M02*
