G75*
%MOIN*%
%OFA0B0*%
%FSLAX24Y24*%
%IPPOS*%
%LPD*%
%AMOC8*
5,1,8,0,0,1.08239X$1,22.5*
%
%ADD10R,0.0011X1.0395*%
%ADD11R,0.0011X1.0483*%
%ADD12R,0.0011X1.0549*%
%ADD13R,0.0011X1.0593*%
%ADD14R,0.0011X1.0637*%
%ADD15R,0.0011X1.0670*%
%ADD16R,0.0011X1.0692*%
%ADD17R,0.0011X1.0725*%
%ADD18R,0.0011X1.0747*%
%ADD19R,0.0011X1.0769*%
%ADD20R,0.0011X1.0791*%
%ADD21R,0.0011X1.0802*%
%ADD22R,0.0011X1.0824*%
%ADD23R,0.0011X1.0846*%
%ADD24R,0.0011X1.0857*%
%ADD25R,0.0011X1.0868*%
%ADD26R,0.0011X1.0879*%
%ADD27R,0.0011X1.0890*%
%ADD28R,0.0011X1.0901*%
%ADD29R,0.0011X0.0363*%
%ADD30R,0.0011X0.9460*%
%ADD31R,0.0011X0.0341*%
%ADD32R,0.0011X0.9438*%
%ADD33R,0.0011X0.0330*%
%ADD34R,0.0011X0.9416*%
%ADD35R,0.0011X0.0319*%
%ADD36R,0.0011X0.0506*%
%ADD37R,0.0011X0.0264*%
%ADD38R,0.0011X0.0176*%
%ADD39R,0.0011X0.0253*%
%ADD40R,0.0011X0.0286*%
%ADD41R,0.0011X0.0352*%
%ADD42R,0.0011X0.0165*%
%ADD43R,0.0011X0.0231*%
%ADD44R,0.0011X0.0308*%
%ADD45R,0.0011X0.0495*%
%ADD46R,0.0011X0.0187*%
%ADD47R,0.0011X0.0242*%
%ADD48R,0.0011X0.0297*%
%ADD49R,0.0011X0.0275*%
%ADD50R,0.0011X0.0297*%
%ADD51R,0.0011X0.0220*%
%ADD52R,0.0011X0.0209*%
%ADD53R,0.0011X0.0209*%
%ADD54R,0.0011X0.0198*%
%ADD55R,0.0011X0.0187*%
%ADD56R,0.0011X0.0484*%
%ADD57R,0.0011X0.0154*%
%ADD58R,0.0011X0.0143*%
%ADD59R,0.0011X0.0484*%
%ADD60R,0.0011X0.0154*%
%ADD61R,0.0011X0.0132*%
%ADD62R,0.0011X0.0132*%
%ADD63R,0.0011X0.0121*%
%ADD64R,0.0011X0.0264*%
%ADD65R,0.0011X0.0374*%
%ADD66R,0.0011X0.0077*%
%ADD67R,0.0011X0.0077*%
%ADD68R,0.0011X0.0055*%
%ADD69R,0.0011X0.3663*%
%ADD70R,0.0011X0.0110*%
%ADD71R,0.0011X0.0099*%
%ADD72R,0.0011X0.0088*%
%ADD73R,0.0011X0.3652*%
%ADD74R,0.0011X0.0352*%
%ADD75R,0.0011X0.0517*%
%ADD76R,0.0011X0.0528*%
%ADD77R,0.0011X0.0385*%
%ADD78R,0.0011X0.0374*%
%ADD79R,0.0011X0.0539*%
%ADD80R,0.0011X0.0396*%
%ADD81R,0.0011X0.0099*%
%ADD82R,0.0011X0.0550*%
%ADD83R,0.0011X0.0044*%
%ADD84R,0.0011X0.3674*%
%ADD85R,0.0011X0.3685*%
%ADD86R,0.0011X0.0033*%
%ADD87R,0.0011X0.3696*%
%ADD88R,0.0011X0.0561*%
%ADD89R,0.0011X0.3707*%
%ADD90R,0.0011X0.3740*%
%ADD91R,0.0011X0.0044*%
%ADD92R,0.0011X0.0066*%
%ADD93R,0.0011X0.3751*%
%ADD94R,0.0011X0.0022*%
%ADD95R,0.0011X0.0572*%
%ADD96R,0.0011X0.0407*%
%ADD97R,0.0011X0.3729*%
%ADD98R,0.0011X0.0583*%
%ADD99R,0.0011X0.3718*%
%ADD100R,0.0011X0.0594*%
%ADD101R,0.0011X0.0011*%
%ADD102R,0.0011X0.0605*%
%ADD103R,0.0011X0.0242*%
%ADD104R,0.0011X0.0616*%
%ADD105R,0.0011X0.0627*%
%ADD106R,0.0011X0.3795*%
%ADD107R,0.0011X0.4433*%
%ADD108R,0.0011X0.0638*%
%ADD109R,0.0011X0.4444*%
%ADD110R,0.0011X0.4466*%
%ADD111R,0.0011X0.4488*%
%ADD112R,0.0011X0.0022*%
%ADD113R,0.0011X0.0649*%
%ADD114R,0.0011X0.4521*%
%ADD115R,0.0011X0.2189*%
%ADD116R,0.0011X0.5049*%
%ADD117R,0.0011X0.2255*%
%ADD118R,0.0011X0.0473*%
%ADD119R,0.0011X0.0407*%
%ADD120R,0.0011X0.5126*%
%ADD121R,0.0011X0.9383*%
%ADD122R,0.0011X0.9394*%
%ADD123R,0.0011X0.9405*%
%ADD124R,0.0011X0.9427*%
%ADD125R,0.0011X0.9482*%
%ADD126R,0.0011X0.0429*%
%ADD127R,0.0011X0.9526*%
%ADD128R,0.0011X0.0319*%
%ADD129R,0.0011X0.0539*%
%ADD130R,0.0011X0.0440*%
%ADD131R,0.0011X0.0649*%
%ADD132R,0.0011X0.3652*%
%ADD133R,0.0011X0.0660*%
%ADD134R,0.0011X0.0517*%
%ADD135R,0.0011X0.0451*%
%ADD136R,0.0011X0.0682*%
%ADD137R,0.0011X0.0462*%
%ADD138R,0.0011X0.0693*%
%ADD139R,0.0011X0.0704*%
%ADD140R,0.0011X0.0715*%
%ADD141R,0.0011X0.0726*%
%ADD142R,0.0011X0.0737*%
%ADD143R,0.0011X0.0418*%
%ADD144R,0.0011X0.0462*%
%ADD145R,0.0011X0.0748*%
%ADD146R,0.0011X0.3707*%
%ADD147R,0.0011X0.0759*%
%ADD148R,0.0011X0.0770*%
%ADD149R,0.0011X0.0781*%
%ADD150R,0.0011X0.0803*%
%ADD151R,0.0011X0.0825*%
%ADD152R,0.0011X0.0836*%
%ADD153R,0.0011X0.0847*%
%ADD154R,0.0011X0.0858*%
%ADD155R,0.0011X0.0869*%
%ADD156R,0.0011X0.3762*%
%ADD157R,0.0011X0.0891*%
%ADD158R,0.0011X0.3773*%
%ADD159R,0.0011X0.0902*%
%ADD160R,0.0011X0.0924*%
%ADD161R,0.0011X0.0946*%
%ADD162R,0.0011X0.3806*%
%ADD163R,0.0011X0.0957*%
%ADD164R,0.0011X0.3839*%
%ADD165R,0.0011X0.0968*%
%ADD166R,0.0011X0.3850*%
%ADD167R,0.0011X0.1001*%
%ADD168R,0.0011X0.3894*%
%ADD169R,0.0011X0.1012*%
%ADD170R,0.0011X0.0682*%
%ADD171R,0.0011X0.1045*%
%ADD172R,0.0011X0.1067*%
%ADD173R,0.0011X0.4477*%
%ADD174R,0.0011X0.1089*%
%ADD175R,0.0011X0.1133*%
%ADD176R,0.0011X0.0792*%
%ADD177R,0.0011X0.3212*%
%ADD178R,0.0011X0.4972*%
%ADD179R,0.0011X0.0847*%
%ADD180R,0.0011X0.3300*%
%ADD181R,0.0011X0.0814*%
%ADD182R,0.0011X0.5005*%
%ADD183R,0.0011X1.0780*%
%ADD184R,0.0011X1.0758*%
%ADD185R,0.0011X1.0736*%
%ADD186R,0.0011X1.0714*%
%ADD187R,0.0011X1.0626*%
%ADD188R,0.0011X1.0582*%
%ADD189R,0.0011X1.0538*%
%ADD190R,0.0011X1.0472*%
%ADD191R,0.0011X1.0362*%
D10*
X002302Y007699D03*
D11*
X002313Y007699D03*
D12*
X002324Y007699D03*
D13*
X002335Y007699D03*
D14*
X002346Y007699D03*
D15*
X002357Y007705D03*
X004293Y007705D03*
D16*
X004282Y007705D03*
X002368Y007705D03*
D17*
X002379Y007699D03*
D18*
X002390Y007699D03*
D19*
X002401Y007699D03*
D20*
X002412Y007699D03*
D21*
X002423Y007705D03*
X004227Y007705D03*
D22*
X004216Y007705D03*
X002434Y007705D03*
D23*
X002445Y007705D03*
X004194Y007705D03*
X004205Y007705D03*
D24*
X002456Y007699D03*
D25*
X002467Y007705D03*
X004172Y007705D03*
X004183Y007705D03*
D26*
X002478Y007699D03*
D27*
X002489Y007705D03*
X004150Y007705D03*
X004161Y007705D03*
D28*
X002500Y007699D03*
D29*
X002544Y007292D03*
X002544Y006324D03*
X002720Y006137D03*
X002654Y005664D03*
X002643Y005664D03*
X002940Y005664D03*
X003864Y007325D03*
X003875Y007325D03*
X003886Y007325D03*
X003897Y007325D03*
X003908Y007325D03*
X003919Y007325D03*
X003930Y007325D03*
X003941Y007325D03*
X003930Y006841D03*
X003864Y003156D03*
X003413Y002408D03*
X002511Y002430D03*
X002544Y012990D03*
X003622Y013001D03*
D30*
X003413Y008453D03*
X002511Y008431D03*
D31*
X002918Y007171D03*
X002929Y007171D03*
X003050Y007798D03*
X002544Y006819D03*
X002687Y005653D03*
X002698Y005653D03*
X002709Y005653D03*
X002874Y005653D03*
X002885Y005653D03*
X002896Y005653D03*
X002907Y005653D03*
X003050Y006324D03*
X002951Y004806D03*
X002522Y002419D03*
X003402Y002397D03*
X004029Y004806D03*
X004029Y006192D03*
X002555Y013001D03*
D32*
X002522Y008442D03*
D33*
X002720Y005648D03*
X002731Y005648D03*
X002742Y005648D03*
X002753Y005648D03*
X002764Y005648D03*
X002929Y004812D03*
X002940Y004812D03*
X003721Y006187D03*
X003732Y006187D03*
X003743Y006187D03*
X003754Y006187D03*
X003765Y006187D03*
X003776Y006187D03*
X003963Y006187D03*
X003974Y006187D03*
X003985Y006187D03*
X003996Y006187D03*
X004007Y006187D03*
X004018Y006187D03*
X003919Y006858D03*
X003853Y007925D03*
X004018Y005274D03*
X004029Y005274D03*
X004018Y004812D03*
X002533Y002403D03*
X002566Y013007D03*
X002951Y013018D03*
X003633Y013018D03*
D34*
X003391Y008475D03*
X003380Y008475D03*
X002533Y008453D03*
D35*
X002951Y007193D03*
X002940Y007182D03*
X003622Y006753D03*
X003952Y006192D03*
X003985Y005268D03*
X003996Y005268D03*
X004007Y005268D03*
X004007Y004817D03*
X003996Y004817D03*
X003985Y004817D03*
X003875Y003156D03*
X003391Y002386D03*
X003380Y002386D03*
X002544Y002397D03*
X002896Y004817D03*
X002907Y004817D03*
X002918Y004817D03*
X004117Y008370D03*
X003930Y012715D03*
X003919Y012715D03*
X003908Y012715D03*
X003897Y012715D03*
X003886Y012715D03*
X003875Y012715D03*
X003864Y012715D03*
X003853Y012715D03*
X003842Y012715D03*
X003831Y012715D03*
X003820Y012715D03*
X003809Y012715D03*
X003798Y012715D03*
X003787Y012715D03*
X003776Y012715D03*
X003765Y012715D03*
X003754Y012715D03*
X003743Y012715D03*
X004051Y013023D03*
X002940Y013023D03*
D36*
X003776Y007397D03*
X003787Y007397D03*
X003798Y007397D03*
X003809Y007397D03*
X003820Y007397D03*
X003831Y006275D03*
X002676Y004053D03*
X002665Y004053D03*
X002654Y004053D03*
X002544Y004009D03*
X003897Y002480D03*
X003908Y002480D03*
D37*
X003633Y004526D03*
X003842Y004845D03*
X003853Y004845D03*
X003853Y005241D03*
X003842Y005241D03*
X003864Y005241D03*
X003633Y005560D03*
X003754Y006539D03*
X003633Y006781D03*
X003622Y007386D03*
X003809Y007914D03*
X003743Y008255D03*
X004117Y007276D03*
X003886Y006891D03*
X004117Y005769D03*
X002775Y004845D03*
X002764Y004845D03*
X002753Y004845D03*
X002544Y004526D03*
X002544Y008805D03*
X003688Y013051D03*
X003699Y013051D03*
X003985Y013051D03*
X003996Y013051D03*
D38*
X003677Y012435D03*
X003666Y012435D03*
X003622Y010158D03*
X003622Y009905D03*
X003622Y009652D03*
X003622Y009399D03*
X003710Y009399D03*
X003710Y009146D03*
X003622Y009146D03*
X003897Y008354D03*
X003908Y008354D03*
X003930Y008365D03*
X003963Y008376D03*
X004062Y007837D03*
X004073Y007837D03*
X004029Y007540D03*
X003732Y007540D03*
X003721Y007848D03*
X003732Y007859D03*
X003666Y006825D03*
X003886Y005813D03*
X003897Y005813D03*
X004051Y005362D03*
X004062Y005362D03*
X004062Y004724D03*
X004051Y004724D03*
X003633Y004889D03*
X003633Y005197D03*
X003017Y006330D03*
X002995Y006836D03*
X003017Y007309D03*
X002874Y007540D03*
X002863Y007540D03*
X002852Y007540D03*
X002841Y007540D03*
X002753Y007540D03*
X002742Y007540D03*
X002731Y007540D03*
X002599Y007298D03*
X002676Y008046D03*
X002687Y008046D03*
X002698Y008046D03*
X002709Y008046D03*
X002720Y008585D03*
X002665Y008585D03*
X002588Y008849D03*
X002995Y007793D03*
X002577Y006330D03*
X002654Y006088D03*
X002588Y005813D03*
X002544Y004889D03*
X002962Y004724D03*
X002973Y004724D03*
X003006Y005813D03*
X002588Y012402D03*
D39*
X003699Y012715D03*
X003710Y013056D03*
X003721Y013056D03*
X003732Y013056D03*
X003952Y013056D03*
X003963Y013056D03*
X003974Y013056D03*
X003985Y012715D03*
X003655Y008612D03*
X003644Y008612D03*
X003765Y008271D03*
X003754Y008260D03*
X003798Y007908D03*
X003765Y007523D03*
X003633Y007776D03*
X003875Y006896D03*
X004007Y007270D03*
X004018Y007270D03*
X004029Y007270D03*
X004040Y007270D03*
X004051Y007270D03*
X004062Y007270D03*
X004073Y007270D03*
X004084Y007270D03*
X004095Y007270D03*
X004106Y007270D03*
X004106Y006907D03*
X004018Y006610D03*
X004084Y005774D03*
X004095Y005774D03*
X004106Y005774D03*
X003831Y005235D03*
X003820Y005235D03*
X003809Y005235D03*
X003809Y004850D03*
X003820Y004850D03*
X003831Y004850D03*
X003655Y004531D03*
X003644Y004531D03*
X003644Y005554D03*
X003655Y005554D03*
X003622Y006379D03*
X003039Y006324D03*
X002907Y006093D03*
X002907Y006599D03*
X002687Y006599D03*
X002687Y006093D03*
X002687Y005235D03*
X002676Y005235D03*
X002665Y005235D03*
X002654Y005235D03*
X002643Y005235D03*
X002632Y005235D03*
X002621Y005235D03*
X002610Y005235D03*
X002599Y005235D03*
X002588Y005235D03*
X002577Y005235D03*
X002566Y005235D03*
X002555Y005235D03*
X002544Y005235D03*
X002698Y005235D03*
X002709Y005235D03*
X002720Y005235D03*
X002731Y005235D03*
X002742Y005235D03*
X002753Y005235D03*
X002764Y005235D03*
X002775Y005235D03*
X002786Y005235D03*
X002797Y005235D03*
X002808Y005235D03*
X002819Y005235D03*
X002830Y005235D03*
X002841Y005235D03*
X002852Y005235D03*
X002863Y005235D03*
X002874Y005235D03*
X002885Y005235D03*
X002896Y005235D03*
X002907Y005235D03*
X002918Y005235D03*
X002929Y005235D03*
X002940Y005235D03*
X002951Y005235D03*
X002742Y004850D03*
X002731Y004850D03*
X002720Y004850D03*
X002566Y004531D03*
X002555Y004531D03*
X002566Y007292D03*
X002566Y007787D03*
X002544Y008249D03*
X003050Y007336D03*
X003897Y003156D03*
D40*
X003886Y003162D03*
X003622Y004526D03*
X003886Y004834D03*
X003897Y004834D03*
X003908Y004834D03*
X003919Y004834D03*
X003919Y005252D03*
X003908Y005252D03*
X003897Y005252D03*
X003622Y005560D03*
X003776Y006528D03*
X003765Y006539D03*
X003897Y006880D03*
X003820Y007914D03*
X003721Y008233D03*
X003622Y008607D03*
X004106Y008376D03*
X003039Y006847D03*
X002544Y005857D03*
X002808Y004834D03*
X002819Y004834D03*
X002830Y004834D03*
X002621Y002370D03*
X002632Y012677D03*
X002643Y012677D03*
X002643Y013040D03*
X002632Y013040D03*
X002654Y013040D03*
X002665Y013040D03*
X002676Y013040D03*
X002687Y013040D03*
X002698Y013040D03*
X002709Y013040D03*
X002720Y013040D03*
X002731Y013040D03*
X002742Y013040D03*
X002753Y013040D03*
X002764Y013040D03*
X002775Y013040D03*
X002786Y013040D03*
X002797Y013040D03*
X002808Y013040D03*
X002819Y013040D03*
X002830Y013040D03*
X002841Y013040D03*
X002852Y013040D03*
X002863Y013040D03*
X002874Y013040D03*
X002885Y013040D03*
X002885Y012677D03*
X003666Y013040D03*
X003721Y012710D03*
D41*
X004062Y013007D03*
X002962Y013007D03*
X002544Y007793D03*
X002907Y007166D03*
D42*
X002863Y007248D03*
X003006Y007303D03*
X002896Y007545D03*
X002885Y007545D03*
X002808Y007842D03*
X002797Y007842D03*
X002720Y008040D03*
X002665Y008051D03*
X002588Y008293D03*
X002577Y008293D03*
X002654Y008579D03*
X002731Y008579D03*
X002797Y008293D03*
X002852Y008293D03*
X003017Y008293D03*
X002720Y007545D03*
X002709Y007545D03*
X002599Y007787D03*
X002698Y007050D03*
X002709Y007050D03*
X002720Y007050D03*
X002731Y007050D03*
X002577Y006830D03*
X002654Y006588D03*
X002588Y006324D03*
X002599Y005807D03*
X002995Y005807D03*
X003006Y006324D03*
X002984Y006830D03*
X002599Y008854D03*
X002599Y009107D03*
X002588Y009107D03*
X002577Y009107D03*
X002566Y009107D03*
X002555Y009107D03*
X002544Y009107D03*
X002610Y009107D03*
X002621Y009107D03*
X002621Y009360D03*
X002610Y009360D03*
X002599Y009360D03*
X002588Y009360D03*
X002577Y009360D03*
X002566Y009360D03*
X002555Y009360D03*
X002544Y009360D03*
X002544Y009613D03*
X002555Y009613D03*
X002566Y009613D03*
X002577Y009613D03*
X002588Y009613D03*
X002599Y009613D03*
X002610Y009613D03*
X002621Y009613D03*
X002621Y009866D03*
X002610Y009866D03*
X002599Y009866D03*
X002588Y009866D03*
X002577Y009866D03*
X002566Y009866D03*
X002555Y009866D03*
X002544Y009866D03*
X002544Y010119D03*
X002555Y010119D03*
X002566Y010119D03*
X002577Y010119D03*
X002588Y010119D03*
X002599Y010119D03*
X002610Y010119D03*
X002621Y010119D03*
X002621Y010372D03*
X002610Y010372D03*
X002599Y010372D03*
X002588Y010372D03*
X002577Y010372D03*
X002566Y010372D03*
X002555Y010372D03*
X002544Y010372D03*
X002544Y010625D03*
X002555Y010625D03*
X002566Y010625D03*
X002577Y010625D03*
X002588Y010625D03*
X002599Y010625D03*
X002610Y010625D03*
X002621Y010625D03*
X002621Y010878D03*
X002610Y010878D03*
X002599Y010878D03*
X002588Y010878D03*
X002577Y010878D03*
X002566Y010878D03*
X002555Y010878D03*
X002544Y010878D03*
X002544Y011131D03*
X002555Y011131D03*
X002566Y011131D03*
X002577Y011131D03*
X002588Y011131D03*
X002599Y011131D03*
X002610Y011131D03*
X002621Y011131D03*
X002621Y011384D03*
X002610Y011384D03*
X002599Y011384D03*
X002588Y011384D03*
X002577Y011384D03*
X002566Y011384D03*
X002555Y011384D03*
X002544Y011384D03*
X002544Y011637D03*
X002555Y011637D03*
X002566Y011637D03*
X002577Y011637D03*
X002588Y011637D03*
X002599Y011637D03*
X002610Y011637D03*
X002621Y011637D03*
X002621Y011890D03*
X002610Y011890D03*
X002599Y011890D03*
X002588Y011890D03*
X002577Y011890D03*
X002566Y011890D03*
X002555Y011890D03*
X002544Y011890D03*
X002544Y012143D03*
X002555Y012143D03*
X002566Y012143D03*
X002577Y012143D03*
X002588Y012143D03*
X002599Y012143D03*
X002610Y012143D03*
X002621Y012143D03*
X002599Y012396D03*
X003622Y012176D03*
X003633Y012176D03*
X003644Y012176D03*
X003655Y012176D03*
X003666Y012176D03*
X003677Y012176D03*
X003688Y012176D03*
X003699Y012176D03*
X003710Y012176D03*
X003710Y011923D03*
X003699Y011923D03*
X003688Y011923D03*
X003677Y011923D03*
X003666Y011923D03*
X003655Y011923D03*
X003644Y011923D03*
X003633Y011923D03*
X003622Y011923D03*
X003622Y011670D03*
X003633Y011670D03*
X003644Y011670D03*
X003655Y011670D03*
X003666Y011670D03*
X003677Y011670D03*
X003688Y011670D03*
X003699Y011670D03*
X003710Y011670D03*
X003710Y011417D03*
X003699Y011417D03*
X003688Y011417D03*
X003677Y011417D03*
X003666Y011417D03*
X003655Y011417D03*
X003644Y011417D03*
X003633Y011417D03*
X003622Y011417D03*
X003622Y011164D03*
X003633Y011164D03*
X003644Y011164D03*
X003655Y011164D03*
X003666Y011164D03*
X003677Y011164D03*
X003688Y011164D03*
X003699Y011164D03*
X003710Y011164D03*
X003710Y010911D03*
X003699Y010911D03*
X003688Y010911D03*
X003677Y010911D03*
X003666Y010911D03*
X003655Y010911D03*
X003644Y010911D03*
X003633Y010911D03*
X003622Y010911D03*
X003622Y010658D03*
X003633Y010658D03*
X003644Y010658D03*
X003655Y010658D03*
X003666Y010658D03*
X003677Y010658D03*
X003688Y010658D03*
X003699Y010658D03*
X003710Y010658D03*
X003710Y010405D03*
X003699Y010405D03*
X003688Y010405D03*
X003677Y010405D03*
X003666Y010405D03*
X003655Y010405D03*
X003644Y010405D03*
X003633Y010405D03*
X003622Y010405D03*
X003633Y010152D03*
X003644Y010152D03*
X003655Y010152D03*
X003666Y010152D03*
X003677Y010152D03*
X003688Y010152D03*
X003699Y010152D03*
X003710Y010152D03*
X003710Y009899D03*
X003699Y009899D03*
X003688Y009899D03*
X003677Y009899D03*
X003666Y009899D03*
X003655Y009899D03*
X003644Y009899D03*
X003633Y009899D03*
X003633Y009646D03*
X003644Y009646D03*
X003655Y009646D03*
X003666Y009646D03*
X003677Y009646D03*
X003688Y009646D03*
X003699Y009646D03*
X003710Y009646D03*
X003699Y009393D03*
X003688Y009393D03*
X003677Y009393D03*
X003666Y009393D03*
X003655Y009393D03*
X003644Y009393D03*
X003633Y009393D03*
X003633Y009140D03*
X003644Y009140D03*
X003655Y009140D03*
X003666Y009140D03*
X003677Y009140D03*
X003688Y009140D03*
X003699Y009140D03*
X003710Y007842D03*
X003688Y007820D03*
X003677Y007820D03*
X004007Y007842D03*
X004018Y007842D03*
X004029Y007842D03*
X004040Y007842D03*
X004051Y007842D03*
X003677Y006830D03*
X003875Y006324D03*
X003875Y005818D03*
X003864Y005818D03*
X003853Y005818D03*
X004106Y006346D03*
X003919Y003156D03*
X003699Y012429D03*
X003688Y012429D03*
D43*
X003633Y012462D03*
X002544Y012429D03*
X002555Y008821D03*
X002566Y006324D03*
X003039Y005829D03*
X002687Y004861D03*
X002676Y004861D03*
X002665Y004861D03*
X003677Y004531D03*
X003743Y004861D03*
X003754Y004861D03*
X003765Y004861D03*
X003776Y004861D03*
X003776Y005224D03*
X003765Y005224D03*
X003754Y005224D03*
X003677Y005554D03*
X004029Y005785D03*
X004040Y005785D03*
X004051Y005785D03*
X003743Y006555D03*
X003743Y006907D03*
X003732Y006907D03*
X003842Y006907D03*
X003853Y006907D03*
X004117Y007820D03*
X004051Y008381D03*
X003798Y008293D03*
X003787Y008282D03*
X003677Y008612D03*
D44*
X004128Y007826D03*
X003974Y005263D03*
X003963Y005263D03*
X003952Y005263D03*
X003952Y004823D03*
X003963Y004823D03*
X003974Y004823D03*
X003369Y002381D03*
X003358Y002381D03*
X002588Y002381D03*
X002577Y002381D03*
X002566Y002392D03*
X002555Y002392D03*
X002863Y004823D03*
X002874Y004823D03*
X002885Y004823D03*
X002863Y012677D03*
X002852Y012677D03*
X002841Y012677D03*
X002830Y012677D03*
X002819Y012677D03*
X002808Y012677D03*
X002797Y012677D03*
X002786Y012677D03*
X002775Y012677D03*
X002764Y012677D03*
X002753Y012677D03*
X002742Y012677D03*
X002731Y012677D03*
X002720Y012677D03*
X002709Y012677D03*
X002698Y012677D03*
X002687Y012677D03*
X002676Y012677D03*
X002665Y012677D03*
X002654Y012677D03*
X002588Y013018D03*
X002577Y013018D03*
X002599Y013029D03*
X002918Y013029D03*
X002929Y013029D03*
X003644Y013029D03*
X003941Y012721D03*
X004040Y013029D03*
D45*
X003061Y007798D03*
X003831Y007391D03*
X003996Y007391D03*
X003963Y006764D03*
X003787Y003156D03*
X003875Y002474D03*
X003886Y002474D03*
X002643Y004047D03*
X002632Y004047D03*
X002621Y004047D03*
X002599Y004036D03*
X002577Y004025D03*
X002566Y004025D03*
X002555Y004014D03*
D46*
X002555Y004883D03*
X002566Y004883D03*
X002577Y005818D03*
X002940Y006588D03*
X003017Y005818D03*
X002995Y004718D03*
X002984Y004718D03*
X003644Y004883D03*
X004040Y004729D03*
X004073Y004718D03*
X004084Y004718D03*
X003864Y006335D03*
X004018Y007534D03*
X003743Y007864D03*
X003666Y007809D03*
X003886Y008348D03*
X003919Y008359D03*
X003941Y008370D03*
X003952Y008370D03*
X003006Y007798D03*
X002830Y007545D03*
X002819Y007545D03*
X002808Y007545D03*
X002797Y007545D03*
X002786Y007545D03*
X002775Y007545D03*
X002764Y007545D03*
X002709Y008590D03*
X002698Y008590D03*
X002687Y008590D03*
X002676Y008590D03*
X002577Y008843D03*
D47*
X003028Y007793D03*
X003028Y006847D03*
X002918Y006088D03*
X002555Y005846D03*
X002698Y004856D03*
X002709Y004856D03*
X002588Y004526D03*
X002577Y004526D03*
X003666Y004526D03*
X003787Y004856D03*
X003798Y004856D03*
X003864Y006902D03*
X003721Y006902D03*
X003787Y007903D03*
X003776Y008277D03*
X003666Y008607D03*
X004062Y008387D03*
X004073Y008387D03*
X004084Y006902D03*
X004095Y006902D03*
X002907Y012677D03*
X003743Y013062D03*
X003754Y013062D03*
X003765Y013062D03*
X003776Y013062D03*
X003787Y013062D03*
X003798Y013062D03*
X003809Y013062D03*
X003820Y013062D03*
X003831Y013062D03*
X003842Y013062D03*
X003853Y013062D03*
X003864Y013062D03*
X003875Y013062D03*
X003886Y013062D03*
X003897Y013062D03*
X003908Y013062D03*
X003919Y013062D03*
X003930Y013062D03*
X003941Y013062D03*
D48*
X003952Y012715D03*
X003963Y012715D03*
X004029Y013034D03*
X003732Y012715D03*
X003655Y013034D03*
X002907Y013034D03*
X002896Y013034D03*
X002621Y013034D03*
X002610Y013034D03*
X003831Y007919D03*
X003908Y006874D03*
X003930Y004828D03*
X003941Y004828D03*
X003347Y002375D03*
X003336Y002375D03*
X003325Y002375D03*
X003314Y002375D03*
X003303Y002375D03*
X003292Y002375D03*
X003281Y002375D03*
X003270Y002375D03*
X003259Y002375D03*
X003248Y002375D03*
X003237Y002375D03*
X003226Y002375D03*
X003215Y002375D03*
X003204Y002375D03*
X003193Y002375D03*
X003182Y002375D03*
X003171Y002375D03*
X003160Y002375D03*
X003149Y002375D03*
X003138Y002375D03*
X003127Y002375D03*
X003116Y002375D03*
X003105Y002375D03*
X003094Y002375D03*
X003083Y002375D03*
X003072Y002375D03*
X003061Y002375D03*
X003050Y002375D03*
X003039Y002375D03*
X003028Y002375D03*
X003017Y002375D03*
X003006Y002375D03*
X002995Y002375D03*
X002984Y002375D03*
X002973Y002375D03*
X002962Y002375D03*
X002951Y002375D03*
X002940Y002375D03*
X002929Y002375D03*
X002918Y002375D03*
X002907Y002375D03*
X002896Y002375D03*
X002885Y002375D03*
X002874Y002375D03*
X002863Y002375D03*
X002852Y002375D03*
X002841Y002375D03*
X002830Y002375D03*
X002819Y002375D03*
X002808Y002375D03*
X002797Y002375D03*
X002786Y002375D03*
X002775Y002375D03*
X002764Y002375D03*
X002753Y002375D03*
X002742Y002375D03*
X002731Y002375D03*
X002720Y002375D03*
X002709Y002375D03*
X002698Y002375D03*
X002687Y002375D03*
X002676Y002375D03*
X002665Y002375D03*
X002654Y002375D03*
X002643Y002375D03*
X002632Y002375D03*
X002610Y002375D03*
X002599Y002375D03*
X002841Y004828D03*
X002852Y004828D03*
X002555Y006324D03*
D49*
X002698Y006093D03*
X002698Y006599D03*
X002555Y006819D03*
X003039Y007798D03*
X003732Y008238D03*
X004095Y008381D03*
X004007Y006621D03*
X003886Y005246D03*
X003875Y005246D03*
X003875Y004839D03*
X003864Y004839D03*
X002797Y004839D03*
X002786Y004839D03*
X003622Y012473D03*
X003710Y012715D03*
X003677Y013045D03*
X004007Y013045D03*
X004018Y013045D03*
X003974Y012715D03*
D50*
X002874Y012682D03*
X002555Y007787D03*
X002555Y007292D03*
X003930Y005257D03*
X003941Y005257D03*
D51*
X003743Y005219D03*
X003732Y005219D03*
X003721Y005219D03*
X003699Y005560D03*
X003688Y005560D03*
X003721Y004867D03*
X003732Y004867D03*
X003699Y004526D03*
X003688Y004526D03*
X003996Y005791D03*
X004007Y005791D03*
X004018Y005791D03*
X004029Y006605D03*
X004073Y006891D03*
X003831Y006913D03*
X003820Y006913D03*
X003809Y006913D03*
X003798Y006913D03*
X003787Y006913D03*
X003776Y006913D03*
X003765Y006913D03*
X003754Y006913D03*
X003644Y006803D03*
X004007Y007529D03*
X003776Y007892D03*
X003644Y007793D03*
X003809Y008299D03*
X003699Y008607D03*
X003688Y008607D03*
X004029Y008387D03*
X004040Y008387D03*
X003017Y007793D03*
X002676Y006594D03*
X002566Y006825D03*
X002577Y007298D03*
X002555Y008266D03*
X003028Y006330D03*
X002676Y006088D03*
X002654Y004867D03*
X002643Y004867D03*
X002621Y004526D03*
X002610Y004526D03*
X002599Y004526D03*
X003039Y004713D03*
X002610Y012677D03*
X003996Y012710D03*
D52*
X003644Y012451D03*
X002555Y012418D03*
X002566Y008832D03*
X002819Y008271D03*
X002577Y007787D03*
X002929Y006588D03*
X002929Y006082D03*
X002632Y004872D03*
X002621Y004872D03*
X002610Y004872D03*
X002632Y004531D03*
X003039Y007325D03*
X003710Y008612D03*
X003831Y008315D03*
X004007Y008051D03*
X004106Y007820D03*
X004018Y008381D03*
X003765Y007886D03*
X003754Y007875D03*
X003974Y005796D03*
X003985Y005796D03*
X003710Y005213D03*
X003699Y005213D03*
X003699Y004872D03*
X003710Y004872D03*
X003710Y004531D03*
X003908Y003156D03*
D53*
X003710Y005554D03*
X003028Y005829D03*
X002566Y005829D03*
D54*
X002665Y006088D03*
X002665Y006594D03*
X002588Y007298D03*
X002566Y008277D03*
X002830Y008277D03*
X003039Y008277D03*
X003028Y007320D03*
X003017Y006847D03*
X003655Y006814D03*
X003732Y006561D03*
X003941Y005802D03*
X003952Y005802D03*
X003963Y005802D03*
X004095Y005373D03*
X004106Y005373D03*
X004117Y005373D03*
X004117Y004713D03*
X004106Y004713D03*
X004095Y004713D03*
X003721Y004526D03*
X003688Y004878D03*
X003677Y004878D03*
X003666Y004878D03*
X003655Y004878D03*
X003622Y004889D03*
X003622Y005197D03*
X003666Y005208D03*
X003677Y005208D03*
X003688Y005208D03*
X003721Y005560D03*
X004062Y006880D03*
X003743Y007540D03*
X003633Y007353D03*
X003655Y007804D03*
X003820Y008310D03*
X003842Y008321D03*
X003853Y008332D03*
X003996Y008387D03*
X004007Y008387D03*
X004095Y007826D03*
X003721Y008607D03*
X003655Y012446D03*
X002566Y012413D03*
X002577Y004878D03*
X002588Y004878D03*
X002599Y004878D03*
X003006Y004713D03*
X003017Y004713D03*
X003028Y004713D03*
D55*
X002863Y005587D03*
X002940Y006082D03*
X003006Y006841D03*
X002874Y007237D03*
X002588Y007787D03*
X002808Y008282D03*
X002841Y008282D03*
X003028Y008282D03*
X003633Y006357D03*
X003908Y005807D03*
X003919Y005807D03*
X003930Y005807D03*
X004073Y005367D03*
X004084Y005367D03*
X004040Y005356D03*
X004117Y006357D03*
X003655Y005202D03*
X003644Y005202D03*
X004084Y007831D03*
X004018Y008051D03*
X003985Y008381D03*
X003974Y008381D03*
X003875Y008337D03*
X003864Y008337D03*
X002643Y004531D03*
X002577Y012407D03*
D56*
X003842Y007386D03*
X003974Y007386D03*
X003985Y007386D03*
X002588Y004031D03*
X003864Y002469D03*
D57*
X003842Y005824D03*
X003831Y005824D03*
X003886Y006319D03*
X004040Y006594D03*
X004095Y006341D03*
X003688Y006836D03*
X003699Y007826D03*
X002984Y007793D03*
X002907Y007540D03*
X002995Y007298D03*
X002753Y007045D03*
X002742Y007045D03*
X002610Y007298D03*
X002698Y007540D03*
X002786Y008299D03*
X002863Y008299D03*
X003006Y008299D03*
X002742Y008574D03*
X002643Y008574D03*
X002610Y008860D03*
X002588Y006825D03*
X002599Y006319D03*
X002621Y005791D03*
X002995Y006319D03*
X002973Y006825D03*
X002621Y012391D03*
X002610Y012391D03*
X003710Y012424D03*
D58*
X002621Y008865D03*
X002599Y008304D03*
X002654Y008051D03*
X002731Y008040D03*
X002786Y007831D03*
X002687Y007545D03*
X002676Y007545D03*
X002610Y007787D03*
X002621Y007292D03*
X002676Y007050D03*
X002687Y007050D03*
X002764Y007039D03*
X002852Y007259D03*
X002962Y007292D03*
X002973Y007292D03*
X002984Y007292D03*
X002929Y007545D03*
X002918Y007545D03*
X002918Y008051D03*
X002907Y008051D03*
X002929Y008051D03*
X002885Y008304D03*
X002874Y008304D03*
X002984Y008304D03*
X002995Y008304D03*
X002929Y008568D03*
X002918Y008568D03*
X002907Y008568D03*
X002896Y008568D03*
X002885Y008568D03*
X002874Y008568D03*
X002775Y008304D03*
X002599Y006819D03*
X002610Y006313D03*
X002951Y006082D03*
X002973Y005796D03*
X002951Y006588D03*
X002962Y006819D03*
X003644Y007325D03*
X003699Y006841D03*
X003721Y006566D03*
X003897Y006313D03*
X003820Y005829D03*
X003809Y005829D03*
X003798Y005829D03*
D59*
X003798Y003162D03*
X002610Y004042D03*
D60*
X002610Y005802D03*
X002984Y005802D03*
X002819Y007837D03*
X004029Y008057D03*
D61*
X003710Y007320D03*
X003699Y007320D03*
X003688Y007320D03*
X003677Y007320D03*
X003666Y007320D03*
X003655Y007320D03*
X003644Y006330D03*
X003765Y005835D03*
X003776Y005835D03*
X003787Y005835D03*
X004084Y006330D03*
X003710Y008915D03*
X002973Y008310D03*
X002962Y008310D03*
X002951Y008310D03*
X002940Y008310D03*
X002929Y008310D03*
X002918Y008310D03*
X002907Y008310D03*
X002896Y008310D03*
X002764Y008310D03*
X002753Y008310D03*
X002621Y008310D03*
X002610Y008310D03*
X002665Y007540D03*
X002775Y007034D03*
X002621Y006814D03*
X002610Y006814D03*
X002940Y006814D03*
X002951Y006814D03*
D62*
X002973Y006308D03*
X002984Y006308D03*
X002962Y005791D03*
X002621Y006308D03*
X002632Y007298D03*
X002830Y007826D03*
X002896Y008057D03*
X002940Y008046D03*
X002962Y007793D03*
X002973Y007793D03*
X002863Y008563D03*
X003710Y006847D03*
X003908Y006308D03*
X003919Y006308D03*
X004007Y006847D03*
X004018Y006847D03*
X004029Y006847D03*
X004040Y006847D03*
X004051Y006847D03*
D63*
X004073Y006324D03*
X003930Y006302D03*
X003754Y005840D03*
X003743Y005840D03*
X003831Y005554D03*
X003831Y004531D03*
X002962Y006302D03*
X002929Y006808D03*
X002918Y006808D03*
X002962Y007116D03*
X002841Y007270D03*
X002940Y007545D03*
X002841Y007820D03*
X002775Y007820D03*
X002632Y007787D03*
X002621Y007787D03*
X002654Y007545D03*
X002654Y007050D03*
X002665Y007050D03*
X002643Y006808D03*
X002632Y006808D03*
X002643Y006588D03*
X002632Y006302D03*
X002643Y006082D03*
X002863Y005752D03*
X002753Y004531D03*
X002742Y004531D03*
X002907Y003574D03*
X002918Y003574D03*
X003721Y007545D03*
X004040Y007545D03*
X003831Y008612D03*
X003699Y008909D03*
X002940Y008557D03*
X002852Y008557D03*
X002742Y008315D03*
X002643Y008315D03*
X002632Y008315D03*
X002632Y008568D03*
D64*
X003633Y008607D03*
X004084Y008387D03*
X004117Y006902D03*
X002896Y012677D03*
X002621Y012677D03*
D65*
X002973Y012996D03*
X003875Y007925D03*
X004139Y007826D03*
X002896Y006143D03*
X002885Y006143D03*
X002709Y006143D03*
X002632Y005670D03*
D66*
X002632Y006082D03*
X002709Y007292D03*
X002720Y007292D03*
X002731Y007292D03*
X002742Y007292D03*
X002753Y007292D03*
X002764Y007292D03*
X002632Y008051D03*
X002962Y008051D03*
X003633Y005862D03*
X003644Y005862D03*
X003886Y004531D03*
X003897Y004531D03*
X003017Y003222D03*
X002808Y004531D03*
X003710Y008337D03*
X003886Y008612D03*
X003897Y008612D03*
D67*
X002962Y007545D03*
X002874Y008073D03*
X002720Y007798D03*
X002632Y006588D03*
X003094Y002804D03*
X003886Y005554D03*
X003897Y005554D03*
D68*
X003050Y003387D03*
X003006Y003222D03*
X002885Y003178D03*
X002874Y003178D03*
X002896Y003090D03*
X002907Y003090D03*
X002918Y003090D03*
X003006Y002815D03*
X003138Y002826D03*
X002907Y003398D03*
X002896Y003398D03*
X002819Y003464D03*
X002808Y003464D03*
X002841Y004531D03*
X002632Y007050D03*
X002632Y007545D03*
X003655Y008326D03*
X003666Y008326D03*
X003677Y008326D03*
D69*
X003743Y010658D03*
X003754Y010658D03*
X003765Y010658D03*
X003776Y010658D03*
X003721Y010669D03*
X002753Y010625D03*
X002742Y010625D03*
X002643Y010625D03*
X002632Y010625D03*
D70*
X002753Y008563D03*
X002731Y008321D03*
X002720Y008321D03*
X002709Y008321D03*
X002698Y008321D03*
X002687Y008321D03*
X002676Y008321D03*
X002665Y008321D03*
X002654Y008321D03*
X002643Y008057D03*
X002742Y008035D03*
X002764Y007815D03*
X002852Y007815D03*
X002863Y007815D03*
X002929Y007793D03*
X002940Y007793D03*
X002951Y007793D03*
X002951Y008046D03*
X002885Y008057D03*
X002830Y007276D03*
X002819Y007276D03*
X002907Y006803D03*
X002940Y006297D03*
X002951Y006297D03*
X002852Y005758D03*
X002841Y005758D03*
X002830Y005758D03*
X002819Y005758D03*
X002808Y005758D03*
X002797Y005758D03*
X002786Y005758D03*
X002775Y005758D03*
X002654Y006297D03*
X002643Y006297D03*
X002654Y006803D03*
X002665Y006803D03*
X002676Y006803D03*
X002654Y007298D03*
X002643Y007298D03*
X002764Y004526D03*
X002775Y004526D03*
X003028Y002821D03*
X003842Y004526D03*
X003853Y004526D03*
X003853Y005560D03*
X003842Y005560D03*
X003732Y005846D03*
X003721Y005846D03*
X003710Y005846D03*
X003655Y006319D03*
X003941Y006297D03*
X004051Y006319D03*
X004062Y006319D03*
X004040Y008068D03*
X003853Y008607D03*
X003842Y008607D03*
X003688Y008915D03*
X003677Y008915D03*
X003666Y008915D03*
X003655Y008915D03*
X003622Y008926D03*
D71*
X003644Y008920D03*
X003820Y008612D03*
X003864Y008612D03*
X004051Y006588D03*
X004040Y006313D03*
X003710Y006302D03*
X003699Y005851D03*
X003688Y005851D03*
X003820Y004531D03*
X003864Y004531D03*
X003138Y003508D03*
X003127Y003508D03*
X003028Y003508D03*
X003017Y003508D03*
X003006Y003508D03*
X003028Y003222D03*
X003028Y003090D03*
X003127Y003090D03*
X003127Y002958D03*
X003138Y002958D03*
X003028Y002958D03*
X003017Y002958D03*
X003006Y002958D03*
X002918Y002991D03*
X002907Y002991D03*
X002808Y002991D03*
X002797Y002991D03*
X002786Y002991D03*
X003017Y002815D03*
X003072Y002826D03*
X003127Y002826D03*
X003127Y003365D03*
X003138Y003365D03*
X003083Y003365D03*
X002786Y004531D03*
X003039Y005312D03*
X002962Y006082D03*
X002929Y006291D03*
X002918Y006291D03*
X002962Y006588D03*
X002808Y007281D03*
X002951Y007545D03*
X002918Y007798D03*
X002907Y007798D03*
X002896Y007798D03*
X002665Y007787D03*
X002654Y007787D03*
X002643Y007787D03*
X002665Y007292D03*
X002643Y007050D03*
X002687Y006797D03*
X002698Y006797D03*
X002676Y006291D03*
X002665Y006291D03*
D72*
X002687Y006286D03*
X002698Y006286D03*
X002907Y006286D03*
X002786Y007034D03*
X002786Y007287D03*
X002775Y007287D03*
X002797Y007287D03*
X002698Y007298D03*
X002687Y007298D03*
X002676Y007298D03*
X002643Y007540D03*
X002676Y007793D03*
X002687Y007793D03*
X002698Y007793D03*
X002709Y007793D03*
X002731Y007804D03*
X002742Y007804D03*
X002753Y008024D03*
X002951Y008552D03*
X003633Y008926D03*
X003875Y008607D03*
X004051Y007551D03*
X003699Y006308D03*
X003688Y006308D03*
X003677Y006308D03*
X003666Y006308D03*
X003622Y005868D03*
X003655Y005857D03*
X003666Y005857D03*
X003677Y005857D03*
X003875Y005560D03*
X003875Y004526D03*
X003094Y003503D03*
X003083Y003503D03*
X003072Y003503D03*
X003072Y003360D03*
X003061Y003360D03*
X002907Y003294D03*
X002863Y003294D03*
X002852Y003294D03*
X002808Y003294D03*
X002797Y003294D03*
X002786Y003294D03*
X002852Y002986D03*
X002863Y002986D03*
X002808Y002876D03*
X002797Y002876D03*
X002786Y002876D03*
X002852Y002744D03*
X002863Y002744D03*
X003061Y002843D03*
X003083Y002821D03*
X003083Y002953D03*
X003072Y002953D03*
X003094Y002953D03*
X003017Y003096D03*
X002797Y004526D03*
X002962Y005318D03*
X002973Y005318D03*
X002984Y005318D03*
X002995Y005318D03*
X003006Y005318D03*
X003017Y005318D03*
X003028Y005318D03*
D73*
X002731Y010631D03*
X002720Y010631D03*
X002709Y010631D03*
X002698Y010631D03*
X002687Y010631D03*
X002676Y010631D03*
X002665Y010631D03*
X002654Y010631D03*
D74*
X002885Y007155D03*
X002896Y007155D03*
X002951Y005670D03*
X002929Y005659D03*
X002918Y005659D03*
X002676Y005659D03*
X002665Y005659D03*
X003864Y007925D03*
D75*
X002698Y004058D03*
X002687Y004058D03*
X003919Y002485D03*
X003930Y002485D03*
D76*
X003941Y002491D03*
X002731Y004064D03*
X002720Y004064D03*
X002709Y004064D03*
X003061Y006847D03*
D77*
X002874Y006137D03*
X002841Y006126D03*
X002830Y006126D03*
X002819Y006126D03*
X002808Y006126D03*
X002797Y006126D03*
X002786Y006126D03*
X002775Y006126D03*
X002764Y006126D03*
X002753Y006126D03*
X002742Y006643D03*
X002731Y006643D03*
X002720Y006654D03*
X002709Y006654D03*
X003853Y003156D03*
X003424Y002419D03*
D78*
X002863Y006132D03*
X002852Y006132D03*
X002742Y006132D03*
X002731Y006132D03*
X003050Y006847D03*
D79*
X002753Y004069D03*
X002742Y004069D03*
D80*
X002753Y006638D03*
X002764Y006638D03*
X002775Y006638D03*
X002786Y006638D03*
X002797Y006638D03*
X002808Y006638D03*
X002819Y006638D03*
X002852Y006649D03*
X002863Y006649D03*
X002885Y006660D03*
X002896Y006660D03*
X003941Y006825D03*
X003886Y007925D03*
X003985Y007958D03*
X003996Y007958D03*
D81*
X003864Y005554D03*
X003820Y005554D03*
X002918Y003299D03*
X002918Y002749D03*
X002907Y002749D03*
X002808Y002749D03*
X002797Y002749D03*
X002786Y002749D03*
X002753Y007809D03*
X002874Y007809D03*
X002885Y007809D03*
D82*
X003820Y006297D03*
X002786Y004075D03*
X002775Y004075D03*
X002764Y004075D03*
X003963Y002502D03*
D83*
X003941Y004526D03*
X003930Y004526D03*
X003930Y005560D03*
X003941Y005560D03*
X003116Y003481D03*
X003116Y003404D03*
X003094Y003404D03*
X003039Y003393D03*
X003028Y003404D03*
X003017Y003415D03*
X003039Y003261D03*
X003039Y003184D03*
X003006Y003096D03*
X002918Y003184D03*
X002907Y003184D03*
X002896Y003184D03*
X002863Y003140D03*
X002852Y003140D03*
X002841Y003140D03*
X002841Y003085D03*
X002830Y003085D03*
X002819Y003085D03*
X002808Y003085D03*
X002797Y003085D03*
X002786Y003085D03*
X002852Y003085D03*
X002863Y003085D03*
X002874Y002964D03*
X002896Y002964D03*
X002841Y002964D03*
X002918Y003393D03*
X002896Y003569D03*
X002797Y003470D03*
X003039Y002865D03*
X003050Y002865D03*
X003105Y002788D03*
X003116Y002788D03*
X003138Y003184D03*
X002863Y004526D03*
X002852Y004526D03*
X002764Y008013D03*
X002863Y008079D03*
X003622Y008321D03*
X003633Y008321D03*
X003644Y008321D03*
D84*
X003787Y010653D03*
X003798Y010653D03*
X002764Y010620D03*
D85*
X002775Y010614D03*
X003809Y010647D03*
X003820Y010647D03*
X003831Y010647D03*
D86*
X003952Y008612D03*
X003963Y008612D03*
X003963Y005554D03*
X003952Y005554D03*
X003952Y004531D03*
X003963Y004531D03*
X003105Y003475D03*
X003061Y003475D03*
X003050Y003475D03*
X003039Y003475D03*
X003006Y003420D03*
X003006Y003332D03*
X003017Y003332D03*
X003028Y003332D03*
X003039Y003332D03*
X003050Y003332D03*
X003094Y003332D03*
X003105Y003332D03*
X003116Y003332D03*
X003116Y003266D03*
X003105Y003266D03*
X003094Y003266D03*
X003083Y003266D03*
X003072Y003266D03*
X003061Y003266D03*
X003050Y003266D03*
X003127Y003266D03*
X003138Y003266D03*
X003127Y003178D03*
X003116Y003178D03*
X003105Y003178D03*
X003094Y003178D03*
X003083Y003178D03*
X003072Y003178D03*
X003061Y003178D03*
X003050Y003178D03*
X003050Y003046D03*
X003072Y003046D03*
X003083Y003046D03*
X003094Y003046D03*
X003105Y003046D03*
X003116Y003057D03*
X003116Y002925D03*
X003105Y002925D03*
X003061Y002925D03*
X003050Y002925D03*
X003039Y002925D03*
X003116Y002859D03*
X002918Y002848D03*
X002907Y002848D03*
X002896Y002848D03*
X002885Y002848D03*
X002874Y002848D03*
X002863Y002848D03*
X002852Y002848D03*
X002841Y002848D03*
X002830Y002848D03*
X002819Y002848D03*
X002819Y002958D03*
X002830Y002958D03*
X002885Y002958D03*
X002863Y003189D03*
X002852Y003189D03*
X002841Y003189D03*
X002830Y003189D03*
X002819Y003189D03*
X002808Y003189D03*
X002797Y003189D03*
X002786Y003189D03*
X002819Y003266D03*
X002830Y003266D03*
X002841Y003266D03*
X002874Y003266D03*
X002885Y003266D03*
X002896Y003266D03*
X002863Y003387D03*
X002852Y003387D03*
X002841Y003387D03*
X002830Y003387D03*
X002819Y003387D03*
X002808Y003387D03*
X002797Y003387D03*
X002786Y003387D03*
X002786Y003475D03*
X002863Y003475D03*
X002874Y003475D03*
X002885Y003475D03*
X002896Y003475D03*
X002907Y003475D03*
X002918Y003475D03*
X002863Y003431D03*
X002863Y003574D03*
X002852Y003574D03*
X002841Y003574D03*
X002830Y003574D03*
X002819Y003574D03*
X002808Y003574D03*
X002797Y003574D03*
X002786Y003574D03*
X002874Y003574D03*
X002885Y003574D03*
X003105Y003409D03*
X002885Y004531D03*
X002874Y004531D03*
X002863Y006984D03*
D87*
X002874Y010609D03*
X002885Y010609D03*
X002896Y010620D03*
X002907Y010620D03*
X002786Y010609D03*
X003842Y010642D03*
X003853Y010642D03*
D88*
X002819Y004080D03*
X002808Y004080D03*
X002797Y004080D03*
X003435Y003156D03*
X003446Y003156D03*
X003457Y003156D03*
X003468Y003156D03*
X003479Y003156D03*
X003490Y003156D03*
X003501Y003156D03*
X003512Y003156D03*
X003523Y003156D03*
X003534Y003156D03*
X003545Y003156D03*
X003556Y003156D03*
X003567Y003156D03*
X003578Y003156D03*
X003589Y003156D03*
X003600Y003156D03*
X003611Y003156D03*
X003622Y003156D03*
X003633Y003156D03*
X003644Y003156D03*
X003655Y003156D03*
X003666Y003156D03*
X003677Y003156D03*
X003688Y003156D03*
X003974Y002507D03*
X003985Y002507D03*
D89*
X002863Y010603D03*
X002918Y010625D03*
X002797Y010603D03*
D90*
X002808Y010587D03*
X002830Y010587D03*
X002951Y010642D03*
X003952Y010620D03*
X003963Y010620D03*
D91*
X003941Y008607D03*
X003930Y008607D03*
X003039Y003052D03*
X002896Y002722D03*
X002885Y002722D03*
X002874Y002722D03*
X002841Y002722D03*
X002830Y002722D03*
X002819Y002722D03*
D92*
X002874Y003096D03*
X002885Y003096D03*
X002885Y003404D03*
X002874Y003404D03*
X002852Y003459D03*
X002841Y003459D03*
X002830Y003459D03*
X003138Y003096D03*
X002830Y004526D03*
X002819Y004526D03*
X002874Y007001D03*
X003688Y008332D03*
X003699Y008332D03*
X003908Y008607D03*
X003919Y008607D03*
X004051Y008068D03*
X003919Y005560D03*
X003908Y005560D03*
X003908Y004526D03*
X003919Y004526D03*
D93*
X002819Y010581D03*
X002962Y010647D03*
X003974Y010625D03*
D94*
X003974Y005560D03*
X003116Y003129D03*
X003039Y003129D03*
X002830Y003140D03*
D95*
X002830Y004086D03*
X002841Y004086D03*
X003996Y002513D03*
D96*
X002841Y006643D03*
X002830Y006643D03*
X002874Y006654D03*
D97*
X002841Y010592D03*
X003930Y010625D03*
X003941Y010625D03*
D98*
X002885Y004091D03*
X002874Y004091D03*
X002863Y004091D03*
X002852Y004091D03*
X004007Y002518D03*
D99*
X002852Y010598D03*
X002929Y010631D03*
X002940Y010631D03*
X003886Y010631D03*
X003897Y010631D03*
X003908Y010631D03*
X003919Y010631D03*
D100*
X002896Y004097D03*
D101*
X002896Y004531D03*
X003105Y002870D03*
X003688Y012649D03*
X003688Y012781D03*
D102*
X003809Y006324D03*
X003644Y003959D03*
X003633Y003959D03*
X003622Y003959D03*
X004018Y002529D03*
X002929Y004102D03*
X002918Y004102D03*
X002907Y004102D03*
D103*
X003666Y005560D03*
X003787Y005230D03*
X003798Y005230D03*
X004062Y005780D03*
X004073Y005780D03*
X003765Y007265D03*
X003754Y007265D03*
X003743Y007265D03*
X003732Y007265D03*
X003721Y007265D03*
X003754Y007529D03*
X002918Y006594D03*
D104*
X002940Y004108D03*
X002951Y004108D03*
X002962Y004108D03*
X003655Y003965D03*
X003666Y003965D03*
X003677Y003965D03*
X004029Y002535D03*
D105*
X004040Y002540D03*
X003699Y003970D03*
X003688Y003970D03*
X002984Y004113D03*
X002973Y004113D03*
D106*
X002973Y010658D03*
X004018Y010625D03*
D107*
X002995Y010966D03*
X002984Y010966D03*
D108*
X003787Y006341D03*
X003798Y006341D03*
X003028Y004119D03*
X003017Y004119D03*
X003006Y004119D03*
X002995Y004119D03*
X004051Y002546D03*
D109*
X003006Y010961D03*
D110*
X003017Y010950D03*
X004073Y010939D03*
X004084Y010939D03*
D111*
X003028Y010939D03*
D112*
X003974Y008607D03*
X003974Y004526D03*
X003061Y003041D03*
X003039Y002777D03*
D113*
X003039Y004124D03*
D114*
X003039Y010922D03*
D115*
X003050Y004894D03*
D116*
X003050Y010658D03*
D117*
X003061Y004927D03*
D118*
X003061Y006324D03*
X003952Y006786D03*
X003963Y007380D03*
X003809Y003156D03*
X003842Y002463D03*
X003853Y002463D03*
D119*
X003842Y003156D03*
X003061Y007336D03*
X003963Y007952D03*
X003974Y007952D03*
D120*
X003061Y010620D03*
D121*
X003072Y008491D03*
X003083Y008491D03*
X003094Y008491D03*
X003105Y008491D03*
X003116Y008491D03*
X003127Y008491D03*
X003138Y008491D03*
X003149Y008491D03*
X003160Y008491D03*
X003171Y008491D03*
X003182Y008491D03*
X003193Y008491D03*
X003204Y008491D03*
X003215Y008491D03*
X003226Y008491D03*
X003237Y008491D03*
X003248Y008491D03*
X003259Y008491D03*
X003270Y008491D03*
X003281Y008491D03*
X003292Y008491D03*
X003303Y008491D03*
X003314Y008491D03*
X003325Y008491D03*
D122*
X003336Y008486D03*
X003347Y008486D03*
D123*
X003358Y008480D03*
X003369Y008480D03*
D124*
X003402Y008469D03*
D125*
X003424Y008442D03*
D126*
X003930Y007930D03*
X003941Y007941D03*
X003985Y006698D03*
X003996Y006698D03*
X003831Y003156D03*
X003699Y002441D03*
X003688Y002441D03*
X003677Y002441D03*
X003666Y002441D03*
X003655Y002441D03*
X003644Y002441D03*
X003633Y002441D03*
X003622Y002441D03*
X003611Y002441D03*
X003600Y002441D03*
X003589Y002441D03*
X003578Y002441D03*
X003567Y002441D03*
X003556Y002441D03*
X003545Y002441D03*
X003534Y002441D03*
X003523Y002441D03*
X003512Y002441D03*
X003501Y002441D03*
X003490Y002441D03*
X003479Y002441D03*
X003468Y002441D03*
X003457Y002441D03*
X003446Y002441D03*
X003435Y002441D03*
D127*
X003435Y008420D03*
X003446Y008420D03*
X003457Y008420D03*
X003468Y008420D03*
X003479Y008420D03*
X003490Y008420D03*
X003501Y008420D03*
X003512Y008420D03*
X003523Y008420D03*
X003534Y008420D03*
X003545Y008420D03*
X003556Y008420D03*
X003567Y008420D03*
X003578Y008420D03*
X003589Y008420D03*
X003600Y008420D03*
X003611Y008420D03*
D128*
X003842Y007919D03*
X003622Y007754D03*
D129*
X003699Y003156D03*
X003710Y003156D03*
X003721Y003156D03*
X003732Y003156D03*
X003743Y003156D03*
X003952Y002496D03*
D130*
X003754Y002447D03*
X003743Y002447D03*
X003732Y002447D03*
X003721Y002447D03*
X003710Y002447D03*
X003897Y007903D03*
X003919Y007925D03*
D131*
X003732Y003970D03*
X003721Y003970D03*
X003710Y003970D03*
D132*
X003732Y010664D03*
D133*
X003743Y003976D03*
X003754Y003976D03*
X004073Y002568D03*
X004062Y002557D03*
D134*
X003776Y003156D03*
X003765Y003156D03*
X003754Y003156D03*
D135*
X003820Y003156D03*
X003787Y002452D03*
X003776Y002452D03*
X003765Y002452D03*
X003842Y006247D03*
X003952Y007369D03*
X003908Y007908D03*
D136*
X003787Y003976D03*
X003776Y003976D03*
X003765Y003976D03*
D137*
X003798Y002458D03*
X003809Y002458D03*
X003820Y002458D03*
X003831Y002458D03*
D138*
X003809Y003981D03*
X003798Y003981D03*
D139*
X003820Y003976D03*
X004095Y002590D03*
D140*
X003831Y003981D03*
D141*
X003842Y003976D03*
X004106Y002601D03*
X004128Y007089D03*
D142*
X003853Y003981D03*
D143*
X003853Y006242D03*
X003974Y006704D03*
X003952Y007947D03*
D144*
X003853Y007375D03*
D145*
X003864Y003976D03*
D146*
X003864Y010636D03*
X003875Y010636D03*
D147*
X003875Y003970D03*
X004117Y002617D03*
D148*
X003886Y003976D03*
D149*
X003897Y003970D03*
X003908Y003970D03*
D150*
X003919Y003970D03*
X003930Y003970D03*
D151*
X003941Y003970D03*
D152*
X003952Y003965D03*
D153*
X003963Y003959D03*
D154*
X003974Y003965D03*
D155*
X003985Y003959D03*
D156*
X003985Y010620D03*
D157*
X003996Y003959D03*
D158*
X003996Y010625D03*
X004007Y010625D03*
D159*
X004007Y003954D03*
D160*
X004018Y003943D03*
D161*
X004029Y003943D03*
D162*
X004029Y010631D03*
D163*
X004040Y003937D03*
D164*
X004040Y010636D03*
D165*
X004051Y003932D03*
D166*
X004051Y010642D03*
D167*
X004062Y003926D03*
D168*
X004062Y010664D03*
D169*
X004073Y003921D03*
D170*
X004084Y002579D03*
D171*
X004084Y003915D03*
D172*
X004095Y003904D03*
D173*
X004095Y010933D03*
X004106Y010933D03*
X004117Y010933D03*
D174*
X004106Y003893D03*
D175*
X004117Y003882D03*
D176*
X004128Y002645D03*
D177*
X004128Y004878D03*
D178*
X004128Y010675D03*
D179*
X004139Y002672D03*
D180*
X004139Y004867D03*
D181*
X004139Y007089D03*
D182*
X004139Y010658D03*
D183*
X004238Y007705D03*
D184*
X004249Y007705D03*
D185*
X004260Y007705D03*
D186*
X004271Y007705D03*
D187*
X004304Y007705D03*
D188*
X004315Y007705D03*
D189*
X004326Y007705D03*
D190*
X004337Y007705D03*
D191*
X004348Y007705D03*
M02*
