G75*
%MOIN*%
%OFA0B0*%
%FSLAX24Y24*%
%IPPOS*%
%LPD*%
%AMOC8*
5,1,8,0,0,1.08239X$1,22.5*
%
%ADD10R,0.0980X0.0316*%
%ADD11R,0.0592X0.0493*%
%ADD12R,0.0395X0.1064*%
%ADD13C,0.0780*%
%ADD14C,0.0513*%
%ADD15C,0.0395*%
%ADD16R,0.0474X0.0513*%
%ADD17R,0.0316X0.0552*%
%ADD18R,0.0513X0.0474*%
%ADD19R,0.0316X0.0316*%
%ADD20R,0.0395X0.0395*%
%ADD21R,0.0516X0.0516*%
D10*
X002069Y004965D03*
X002069Y005465D03*
X002069Y005965D03*
X002069Y006465D03*
X004691Y006465D03*
X004691Y005965D03*
X004691Y005465D03*
X004691Y004965D03*
D11*
X004495Y003831D03*
X004495Y003142D03*
X003589Y003142D03*
X003589Y003831D03*
D12*
X003793Y012621D03*
X002984Y012621D03*
X002010Y012621D03*
X004786Y012621D03*
D13*
X005691Y013381D02*
X005691Y014081D01*
X001085Y014081D02*
X001085Y013381D01*
D14*
X002503Y013703D03*
X004274Y013703D03*
D15*
X005691Y013573D03*
X005691Y013416D03*
X005691Y013888D03*
X005691Y014046D03*
X001085Y014046D03*
X001085Y013888D03*
X001085Y013573D03*
X001085Y013416D03*
D16*
X001420Y003089D03*
X001420Y003758D03*
X002644Y003747D03*
X002644Y003077D03*
X001451Y007849D03*
X001463Y009105D03*
X000794Y009105D03*
X000782Y007849D03*
X001207Y011660D03*
X001207Y012329D03*
D17*
X002682Y010877D03*
X003182Y010877D03*
X003682Y010877D03*
X004182Y010877D03*
X004182Y008672D03*
X003682Y008672D03*
X003182Y008672D03*
X002682Y008672D03*
D18*
X004904Y008349D03*
X004904Y007680D03*
X005869Y007672D03*
X005869Y008341D03*
X005806Y010695D03*
X005806Y011365D03*
D19*
X005814Y010125D03*
X005814Y009258D03*
X001160Y010298D03*
X001160Y011164D03*
D20*
X002010Y007857D03*
X002601Y007857D03*
D21*
X001845Y010648D03*
X003424Y013979D03*
X005841Y012408D03*
X001215Y004522D03*
M02*
