999
"DXF R12 Output" (www.mydxf.blogspot.com)
 0 
SECTION
 2 
HEADER
 9 
$ACADVER
 1 
AC1009
 9 
$EXTMIN
 10 
 0 
 20 
 0 
 9 
$EXTMAX
 10 
 8.5 
 20 
 11 
 0 
ENDSEC
 0 
SECTION
 2 
ENTITIES
0
LINE
8
Layer 1
10
231.608000
20
227.364000
11
171.597000
21
227.364000
0
LINE
8
Layer 1
10
171.597000
20
227.364000
11
171.597000
21
165.350000
0
LINE
8
Layer 1
10
171.597000
20
165.350000
11
231.608000
21
165.350000
0
LINE
8
Layer 1
10
231.608000
20
165.350000
11
231.608000
21
227.364000
0
LINE
8
Layer 1
10
231.608000
20
152.954300
11
171.597000
21
152.954000
0
LINE
8
Layer 1
10
171.597000
20
152.954000
11
171.597000
21
90.940300
0
LINE
8
Layer 1
10
171.597000
20
90.940300
11
231.608000
21
90.940300
0
LINE
8
Layer 1
10
231.608000
20
90.940300
11
231.608000
21
152.954300
0
LINE
8
Layer 1
10
224.592000
20
210.126000
11
224.592000
21
210.096976
0
LINE
8
Layer 1
10
224.592000
20
210.096976
11
224.401531
21
208.207843
0
LINE
8
Layer 1
10
224.401531
20
208.207843
11
223.854236
21
206.408020
0
LINE
8
Layer 1
10
223.854236
20
206.408020
11
222.970675
21
204.747232
0
LINE
8
Layer 1
10
222.970675
20
204.747232
11
221.771410
21
203.275206
0
LINE
8
Layer 1
10
221.771410
20
203.275206
11
194.433610
21
175.717006
0
LINE
8
Layer 1
10
194.433610
20
175.717006
11
193.034044
21
174.561236
0
LINE
8
Layer 1
10
193.034044
20
174.561236
11
191.450142
21
173.710520
0
LINE
8
Layer 1
10
191.450142
20
173.710520
11
189.730699
21
173.185184
0
LINE
8
Layer 1
10
189.730699
20
173.185184
11
187.924510
21
173.005555
0
LINE
8
Layer 1
10
187.924510
20
173.005555
11
186.118321
21
173.185184
0
LINE
8
Layer 1
10
186.118321
20
173.185184
11
184.398878
21
173.710520
0
LINE
8
Layer 1
10
184.398878
20
173.710520
11
182.814976
21
174.561236
0
LINE
8
Layer 1
10
182.814976
20
174.561236
11
181.415410
21
175.717006
0
LINE
8
Layer 1
10
181.415410
20
175.717006
11
180.382560
21
176.758166
0
LINE
8
Layer 1
10
180.382560
20
176.758166
11
179.225017
21
178.185384
0
LINE
8
Layer 1
10
179.225017
20
178.185384
11
178.398201
21
179.765844
0
LINE
8
Layer 1
10
178.398201
20
179.765844
11
177.902111
21
181.448465
0
LINE
8
Layer 1
10
177.902111
20
181.448465
11
177.736748
21
183.182166
0
LINE
8
Layer 1
10
177.736748
20
183.182166
11
177.902111
21
184.915868
0
LINE
8
Layer 1
10
177.902111
20
184.915868
11
178.398201
21
186.598488
0
LINE
8
Layer 1
10
178.398201
20
186.598488
11
179.225017
21
188.178948
0
LINE
8
Layer 1
10
179.225017
20
188.178948
11
180.382560
21
189.606166
0
LINE
8
Layer 1
10
180.382560
20
189.606166
11
208.344460
21
217.793366
0
LINE
8
Layer 1
10
208.344460
20
217.793366
11
209.700291
21
218.913020
0
LINE
8
Layer 1
10
209.700291
20
218.913020
11
211.234699
21
219.737152
0
LINE
8
Layer 1
10
211.234699
20
219.737152
11
212.900412
21
220.246072
0
LINE
8
Layer 1
10
212.900412
20
220.246072
11
214.650160
21
220.420088
0
LINE
8
Layer 1
10
214.650160
20
220.420088
11
216.399908
21
220.246072
0
LINE
8
Layer 1
10
216.399908
20
220.246072
11
218.065621
21
219.737152
0
LINE
8
Layer 1
10
218.065621
20
219.737152
11
219.600029
21
218.913020
0
LINE
8
Layer 1
10
219.600029
20
218.913020
11
220.955860
21
217.793366
0
LINE
8
Layer 1
10
220.955860
20
217.793366
11
221.771408
21
216.971107
0
LINE
8
Layer 1
10
221.771408
20
216.971107
11
222.973933
21
215.494149
0
LINE
8
Layer 1
10
222.973933
20
215.494149
11
223.858667
21
213.827503
0
LINE
8
Layer 1
10
223.858667
20
213.827503
11
224.404919
21
212.021381
0
LINE
8
Layer 1
10
224.404919
20
212.021381
11
224.591998
21
210.125997
0
LINE
8
Layer 1
10
224.591998
20
210.125997
11
224.592000
21
210.126000
0
LINE
8
Layer 1
10
224.592000
20
135.716300
11
224.592000
21
135.687274
0
LINE
8
Layer 1
10
224.592000
20
135.687274
11
224.401531
21
133.798141
0
LINE
8
Layer 1
10
224.401531
20
133.798141
11
223.854236
21
131.998317
0
LINE
8
Layer 1
10
223.854236
20
131.998317
11
222.970675
21
130.337529
0
LINE
8
Layer 1
10
222.970675
20
130.337529
11
221.771410
21
128.865504
0
LINE
8
Layer 1
10
221.771410
20
128.865504
11
194.433610
21
101.307304
0
LINE
8
Layer 1
10
194.433610
20
101.307304
11
193.034044
21
100.151533
0
LINE
8
Layer 1
10
193.034044
20
100.151533
11
191.450142
21
99.300817
0
LINE
8
Layer 1
10
191.450142
20
99.300817
11
189.730699
21
98.775481
0
LINE
8
Layer 1
10
189.730699
20
98.775481
11
187.924510
21
98.595852
0
LINE
8
Layer 1
10
187.924510
20
98.595852
11
186.118321
21
98.775481
0
LINE
8
Layer 1
10
186.118321
20
98.775481
11
184.398878
21
99.300817
0
LINE
8
Layer 1
10
184.398878
20
99.300817
11
182.814976
21
100.151533
0
LINE
8
Layer 1
10
182.814976
20
100.151533
11
181.415410
21
101.307304
0
LINE
8
Layer 1
10
181.415410
20
101.307304
11
180.382560
21
102.348474
0
LINE
8
Layer 1
10
180.382560
20
102.348474
11
179.225017
21
103.775692
0
LINE
8
Layer 1
10
179.225017
20
103.775692
11
178.398201
21
105.356151
0
LINE
8
Layer 1
10
178.398201
20
105.356151
11
177.902111
21
107.038772
0
LINE
8
Layer 1
10
177.902111
20
107.038772
11
177.736748
21
108.772474
0
LINE
8
Layer 1
10
177.736748
20
108.772474
11
177.902111
21
110.506175
0
LINE
8
Layer 1
10
177.902111
20
110.506175
11
178.398201
21
112.188796
0
LINE
8
Layer 1
10
178.398201
20
112.188796
11
179.225017
21
113.769255
0
LINE
8
Layer 1
10
179.225017
20
113.769255
11
180.382560
21
115.196473
0
LINE
8
Layer 1
10
180.382560
20
115.196473
11
208.344460
21
143.383674
0
LINE
8
Layer 1
10
208.344460
20
143.383674
11
209.700291
21
144.503327
0
LINE
8
Layer 1
10
209.700291
20
144.503327
11
211.234699
21
145.327460
0
LINE
8
Layer 1
10
211.234699
20
145.327460
11
212.900412
21
145.836379
0
LINE
8
Layer 1
10
212.900412
20
145.836379
11
214.650160
21
146.010395
0
LINE
8
Layer 1
10
214.650160
20
146.010395
11
216.399908
21
145.836379
0
LINE
8
Layer 1
10
216.399908
20
145.836379
11
218.065621
21
145.327460
0
LINE
8
Layer 1
10
218.065621
20
145.327460
11
219.600029
21
144.503327
0
LINE
8
Layer 1
10
219.600029
20
144.503327
11
220.955860
21
143.383674
0
LINE
8
Layer 1
10
220.955860
20
143.383674
11
221.771408
21
142.561415
0
LINE
8
Layer 1
10
221.771408
20
142.561415
11
222.973932
21
141.084458
0
LINE
8
Layer 1
10
222.973932
20
141.084458
11
223.858665
21
139.417815
0
LINE
8
Layer 1
10
223.858665
20
139.417815
11
224.404918
21
137.611696
0
LINE
8
Layer 1
10
224.404918
20
137.611696
11
224.591998
21
135.716314
0
LINE
8
Layer 1
10
224.591998
20
135.716314
11
224.592000
21
135.716300
0
LINE
8
Layer 1
10
163.233000
20
227.364000
11
103.222000
21
227.364000
0
LINE
8
Layer 1
10
103.222000
20
227.364000
11
103.222000
21
165.350000
0
LINE
8
Layer 1
10
103.222000
20
165.350000
11
163.233000
21
165.350000
0
LINE
8
Layer 1
10
163.233000
20
165.350000
11
163.233000
21
227.364000
0
LINE
8
Layer 1
10
163.233000
20
152.954400
11
103.222000
21
152.955000
0
LINE
8
Layer 1
10
103.222000
20
152.955000
11
103.222000
21
90.940300
0
LINE
8
Layer 1
10
103.222000
20
90.940300
11
163.233000
21
90.940300
0
LINE
8
Layer 1
10
163.233000
20
90.940300
11
163.233000
21
152.954400
0
LINE
8
Layer 1
10
156.218000
20
210.126000
11
156.218000
21
210.096976
0
LINE
8
Layer 1
10
156.218000
20
210.096976
11
156.027531
21
208.207843
0
LINE
8
Layer 1
10
156.027531
20
208.207843
11
155.480236
21
206.408020
0
LINE
8
Layer 1
10
155.480236
20
206.408020
11
154.596675
21
204.747232
0
LINE
8
Layer 1
10
154.596675
20
204.747232
11
153.397410
21
203.275206
0
LINE
8
Layer 1
10
153.397410
20
203.275206
11
126.059610
21
175.717006
0
LINE
8
Layer 1
10
126.059610
20
175.717006
11
124.660044
21
174.561236
0
LINE
8
Layer 1
10
124.660044
20
174.561236
11
123.076142
21
173.710520
0
LINE
8
Layer 1
10
123.076142
20
173.710520
11
121.356699
21
173.185184
0
LINE
8
Layer 1
10
121.356699
20
173.185184
11
119.550510
21
173.005555
0
LINE
8
Layer 1
10
119.550510
20
173.005555
11
117.744321
21
173.185184
0
LINE
8
Layer 1
10
117.744321
20
173.185184
11
116.024878
21
173.710520
0
LINE
8
Layer 1
10
116.024878
20
173.710520
11
114.440976
21
174.561236
0
LINE
8
Layer 1
10
114.440976
20
174.561236
11
113.041410
21
175.717006
0
LINE
8
Layer 1
10
113.041410
20
175.717006
11
112.008560
21
176.758166
0
LINE
8
Layer 1
10
112.008560
20
176.758166
11
110.851017
21
178.185384
0
LINE
8
Layer 1
10
110.851017
20
178.185384
11
110.024201
21
179.765844
0
LINE
8
Layer 1
10
110.024201
20
179.765844
11
109.528111
21
181.448465
0
LINE
8
Layer 1
10
109.528111
20
181.448465
11
109.362748
21
183.182166
0
LINE
8
Layer 1
10
109.362748
20
183.182166
11
109.528111
21
184.915868
0
LINE
8
Layer 1
10
109.528111
20
184.915868
11
110.024201
21
186.598488
0
LINE
8
Layer 1
10
110.024201
20
186.598488
11
110.851017
21
188.178948
0
LINE
8
Layer 1
10
110.851017
20
188.178948
11
112.008560
21
189.606166
0
LINE
8
Layer 1
10
112.008560
20
189.606166
11
139.970460
21
217.793366
0
LINE
8
Layer 1
10
139.970460
20
217.793366
11
141.326291
21
218.913020
0
LINE
8
Layer 1
10
141.326291
20
218.913020
11
142.860699
21
219.737152
0
LINE
8
Layer 1
10
142.860699
20
219.737152
11
144.526412
21
220.246072
0
LINE
8
Layer 1
10
144.526412
20
220.246072
11
146.276160
21
220.420088
0
LINE
8
Layer 1
10
146.276160
20
220.420088
11
148.025908
21
220.246072
0
LINE
8
Layer 1
10
148.025908
20
220.246072
11
149.691621
21
219.737152
0
LINE
8
Layer 1
10
149.691621
20
219.737152
11
151.226029
21
218.913020
0
LINE
8
Layer 1
10
151.226029
20
218.913020
11
152.581860
21
217.793366
0
LINE
8
Layer 1
10
152.581860
20
217.793366
11
153.397405
21
216.971107
0
LINE
8
Layer 1
10
153.397405
20
216.971107
11
154.599930
21
215.494149
0
LINE
8
Layer 1
10
154.599930
20
215.494149
11
155.484664
21
213.827503
0
LINE
8
Layer 1
10
155.484664
20
213.827503
11
156.030916
21
212.021381
0
LINE
8
Layer 1
10
156.030916
20
212.021381
11
156.217995
21
210.125997
0
LINE
8
Layer 1
10
156.217995
20
210.125997
11
156.218000
21
210.126000
0
LINE
8
Layer 1
10
156.218000
20
135.716400
11
156.218000
21
135.687232
0
LINE
8
Layer 1
10
156.218000
20
135.687232
11
156.027511
21
133.798137
0
LINE
8
Layer 1
10
156.027511
20
133.798137
11
155.480209
21
131.998351
0
LINE
8
Layer 1
10
155.480209
20
131.998351
11
154.596656
21
130.337598
0
LINE
8
Layer 1
10
154.596656
20
130.337598
11
153.397410
21
128.865602
0
LINE
8
Layer 1
10
153.397410
20
128.865602
11
126.059610
21
101.307202
0
LINE
8
Layer 1
10
126.059610
20
101.307202
11
124.660044
21
100.151432
0
LINE
8
Layer 1
10
124.660044
20
100.151432
11
123.076142
21
99.300716
0
LINE
8
Layer 1
10
123.076142
20
99.300716
11
121.356699
21
98.775380
0
LINE
8
Layer 1
10
121.356699
20
98.775380
11
119.550510
21
98.595751
0
LINE
8
Layer 1
10
119.550510
20
98.595751
11
117.744321
21
98.775380
0
LINE
8
Layer 1
10
117.744321
20
98.775380
11
116.024878
21
99.300716
0
LINE
8
Layer 1
10
116.024878
20
99.300716
11
114.440976
21
100.151432
0
LINE
8
Layer 1
10
114.440976
20
100.151432
11
113.041410
21
101.307202
0
LINE
8
Layer 1
10
113.041410
20
101.307202
11
112.008560
21
102.348512
0
LINE
8
Layer 1
10
112.008560
20
102.348512
11
110.851061
21
103.775716
0
LINE
8
Layer 1
10
110.851061
20
103.775716
11
110.024276
21
105.356152
0
LINE
8
Layer 1
10
110.024276
20
105.356152
11
109.528204
21
107.038744
0
LINE
8
Layer 1
10
109.528204
20
107.038744
11
109.362847
21
108.772412
0
LINE
8
Layer 1
10
109.362847
20
108.772412
11
109.528204
21
110.506081
0
LINE
8
Layer 1
10
109.528204
20
110.506081
11
110.024276
21
112.188672
0
LINE
8
Layer 1
10
110.024276
20
112.188672
11
110.851061
21
113.769109
0
LINE
8
Layer 1
10
110.851061
20
113.769109
11
112.008560
21
115.196312
0
LINE
8
Layer 1
10
112.008560
20
115.196312
11
139.970460
21
143.383512
0
LINE
8
Layer 1
10
139.970460
20
143.383512
11
141.326291
21
144.503166
0
LINE
8
Layer 1
10
141.326291
20
144.503166
11
142.860699
21
145.327299
0
LINE
8
Layer 1
10
142.860699
20
145.327299
11
144.526412
21
145.836218
0
LINE
8
Layer 1
10
144.526412
20
145.836218
11
146.276160
21
146.010234
0
LINE
8
Layer 1
10
146.276160
20
146.010234
11
148.025908
21
145.836218
0
LINE
8
Layer 1
10
148.025908
20
145.836218
11
149.691621
21
145.327299
0
LINE
8
Layer 1
10
149.691621
20
145.327299
11
151.226029
21
144.503166
0
LINE
8
Layer 1
10
151.226029
20
144.503166
11
152.581860
21
143.383512
0
LINE
8
Layer 1
10
152.581860
20
143.383512
11
153.397405
21
142.561396
0
LINE
8
Layer 1
10
153.397405
20
142.561396
11
154.599930
21
141.084438
0
LINE
8
Layer 1
10
154.599930
20
141.084438
11
155.484664
21
139.417792
0
LINE
8
Layer 1
10
155.484664
20
139.417792
11
156.030916
21
137.611670
0
LINE
8
Layer 1
10
156.030916
20
137.611670
11
156.217995
21
135.716286
0
LINE
8
Layer 1
10
156.217995
20
135.716286
11
156.218000
21
135.716400
0
LINE
8
Layer 1
10
96.352500
20
227.364000
11
36.341500
21
227.364000
0
LINE
8
Layer 1
10
36.341500
20
227.364000
11
36.341500
21
165.350000
0
LINE
8
Layer 1
10
36.341500
20
165.350000
11
96.352500
21
165.350000
0
LINE
8
Layer 1
10
96.352500
20
165.350000
11
96.352500
21
227.364000
0
LINE
8
Layer 1
10
96.352500
20
152.954400
11
36.341500
21
152.955000
0
LINE
8
Layer 1
10
36.341500
20
152.955000
11
36.341500
21
90.940400
0
LINE
8
Layer 1
10
36.341500
20
90.940400
11
96.352500
21
90.940400
0
LINE
8
Layer 1
10
96.352500
20
90.940400
11
96.352500
21
152.954400
0
LINE
8
Layer 1
10
89.336600
20
210.126000
11
89.336600
21
210.096976
0
LINE
8
Layer 1
10
89.336600
20
210.096976
11
89.146131
21
208.207843
0
LINE
8
Layer 1
10
89.146131
20
208.207843
11
88.598836
21
206.408020
0
LINE
8
Layer 1
10
88.598836
20
206.408020
11
87.715275
21
204.747232
0
LINE
8
Layer 1
10
87.715275
20
204.747232
11
86.516010
21
203.275206
0
LINE
8
Layer 1
10
86.516010
20
203.275206
11
59.178210
21
175.717006
0
LINE
8
Layer 1
10
59.178210
20
175.717006
11
57.778644
21
174.561236
0
LINE
8
Layer 1
10
57.778644
20
174.561236
11
56.194742
21
173.710520
0
LINE
8
Layer 1
10
56.194742
20
173.710520
11
54.475299
21
173.185184
0
LINE
8
Layer 1
10
54.475299
20
173.185184
11
52.669110
21
173.005555
0
LINE
8
Layer 1
10
52.669110
20
173.005555
11
50.862921
21
173.185184
0
LINE
8
Layer 1
10
50.862921
20
173.185184
11
49.143478
21
173.710520
0
LINE
8
Layer 1
10
49.143478
20
173.710520
11
47.559576
21
174.561236
0
LINE
8
Layer 1
10
47.559576
20
174.561236
11
46.160010
21
175.717006
0
LINE
8
Layer 1
10
46.160010
20
175.717006
11
45.127160
21
176.758166
0
LINE
8
Layer 1
10
45.127160
20
176.758166
11
43.969617
21
178.185384
0
LINE
8
Layer 1
10
43.969617
20
178.185384
11
43.142801
21
179.765844
0
LINE
8
Layer 1
10
43.142801
20
179.765844
11
42.646711
21
181.448465
0
LINE
8
Layer 1
10
42.646711
20
181.448465
11
42.481348
21
183.182166
0
LINE
8
Layer 1
10
42.481348
20
183.182166
11
42.646711
21
184.915868
0
LINE
8
Layer 1
10
42.646711
20
184.915868
11
43.142801
21
186.598488
0
LINE
8
Layer 1
10
43.142801
20
186.598488
11
43.969617
21
188.178948
0
LINE
8
Layer 1
10
43.969617
20
188.178948
11
45.127160
21
189.606166
0
LINE
8
Layer 1
10
45.127160
20
189.606166
11
73.089060
21
217.793366
0
LINE
8
Layer 1
10
73.089060
20
217.793366
11
74.444891
21
218.913020
0
LINE
8
Layer 1
10
74.444891
20
218.913020
11
75.979299
21
219.737152
0
LINE
8
Layer 1
10
75.979299
20
219.737152
11
77.645012
21
220.246072
0
LINE
8
Layer 1
10
77.645012
20
220.246072
11
79.394760
21
220.420088
0
LINE
8
Layer 1
10
79.394760
20
220.420088
11
81.144508
21
220.246072
0
LINE
8
Layer 1
10
81.144508
20
220.246072
11
82.810221
21
219.737152
0
LINE
8
Layer 1
10
82.810221
20
219.737152
11
84.344629
21
218.913020
0
LINE
8
Layer 1
10
84.344629
20
218.913020
11
85.700460
21
217.793366
0
LINE
8
Layer 1
10
85.700460
20
217.793366
11
86.516011
21
216.971107
0
LINE
8
Layer 1
10
86.516011
20
216.971107
11
87.718536
21
215.494149
0
LINE
8
Layer 1
10
87.718536
20
215.494149
11
88.603270
21
213.827503
0
LINE
8
Layer 1
10
88.603270
20
213.827503
11
89.149522
21
212.021381
0
LINE
8
Layer 1
10
89.149522
20
212.021381
11
89.336601
21
210.125997
0
LINE
8
Layer 1
10
89.336601
20
210.125997
11
89.336600
21
210.126000
0
LINE
8
Layer 1
10
89.336600
20
135.716400
11
89.336600
21
135.687232
0
LINE
8
Layer 1
10
89.336600
20
135.687232
11
89.146111
21
133.798137
0
LINE
8
Layer 1
10
89.146111
20
133.798137
11
88.598809
21
131.998351
0
LINE
8
Layer 1
10
88.598809
20
131.998351
11
87.715256
21
130.337598
0
LINE
8
Layer 1
10
87.715256
20
130.337598
11
86.516010
21
128.865602
0
LINE
8
Layer 1
10
86.516010
20
128.865602
11
59.178210
21
101.307402
0
LINE
8
Layer 1
10
59.178210
20
101.307402
11
57.778644
21
100.151632
0
LINE
8
Layer 1
10
57.778644
20
100.151632
11
56.194742
21
99.300916
0
LINE
8
Layer 1
10
56.194742
20
99.300916
11
54.475299
21
98.775580
0
LINE
8
Layer 1
10
54.475299
20
98.775580
11
52.669110
21
98.595951
0
LINE
8
Layer 1
10
52.669110
20
98.595951
11
50.862921
21
98.775580
0
LINE
8
Layer 1
10
50.862921
20
98.775580
11
49.143478
21
99.300916
0
LINE
8
Layer 1
10
49.143478
20
99.300916
11
47.559576
21
100.151632
0
LINE
8
Layer 1
10
47.559576
20
100.151632
11
46.160010
21
101.307402
0
LINE
8
Layer 1
10
46.160010
20
101.307402
11
45.127160
21
102.348422
0
LINE
8
Layer 1
10
45.127160
20
102.348422
11
43.969596
21
103.775648
0
LINE
8
Layer 1
10
43.969596
20
103.775648
11
43.142764
21
105.356119
0
LINE
8
Layer 1
10
43.142764
20
105.356119
11
42.646665
21
107.038755
0
LINE
8
Layer 1
10
42.646665
20
107.038755
11
42.481299
21
108.772472
0
LINE
8
Layer 1
10
42.481299
20
108.772472
11
42.646665
21
110.506190
0
LINE
8
Layer 1
10
42.646665
20
110.506190
11
43.142764
21
112.188826
0
LINE
8
Layer 1
10
43.142764
20
112.188826
11
43.969596
21
113.769297
0
LINE
8
Layer 1
10
43.969596
20
113.769297
11
45.127160
21
115.196522
0
LINE
8
Layer 1
10
45.127160
20
115.196522
11
73.089060
21
143.383622
0
LINE
8
Layer 1
10
73.089060
20
143.383622
11
74.444891
21
144.503276
0
LINE
8
Layer 1
10
74.444891
20
144.503276
11
75.979299
21
145.327409
0
LINE
8
Layer 1
10
75.979299
20
145.327409
11
77.645012
21
145.836328
0
LINE
8
Layer 1
10
77.645012
20
145.836328
11
79.394760
21
146.010344
0
LINE
8
Layer 1
10
79.394760
20
146.010344
11
81.144508
21
145.836328
0
LINE
8
Layer 1
10
81.144508
20
145.836328
11
82.810221
21
145.327409
0
LINE
8
Layer 1
10
82.810221
20
145.327409
11
84.344629
21
144.503276
0
LINE
8
Layer 1
10
84.344629
20
144.503276
11
85.700460
21
143.383622
0
LINE
8
Layer 1
10
85.700460
20
143.383622
11
86.516011
21
142.561363
0
LINE
8
Layer 1
10
86.516011
20
142.561363
11
87.718515
21
141.084437
0
LINE
8
Layer 1
10
87.718515
20
141.084437
11
88.603242
21
139.417828
0
LINE
8
Layer 1
10
88.603242
20
139.417828
11
89.149500
21
137.611747
0
LINE
8
Layer 1
10
89.149500
20
137.611747
11
89.336601
21
135.716403
0
LINE
8
Layer 1
10
89.336601
20
135.716403
11
89.336600
21
135.716400
0
LINE
8
Layer 1
10
27.978300
20
227.364000
11
-32.033200
21
227.364000
0
LINE
8
Layer 1
10
-32.033200
20
227.364000
11
-32.033200
21
165.350000
0
LINE
8
Layer 1
10
-32.033200
20
165.350000
11
27.978300
21
165.350000
0
LINE
8
Layer 1
10
27.978300
20
165.350000
11
27.978300
21
227.364000
0
LINE
8
Layer 1
10
27.978300
20
152.954400
11
-32.033200
21
152.955000
0
LINE
8
Layer 1
10
-32.033200
20
152.955000
11
-32.033200
21
90.940400
0
LINE
8
Layer 1
10
-32.033200
20
90.940400
11
27.978300
21
90.940400
0
LINE
8
Layer 1
10
27.978300
20
90.940400
11
27.978300
21
152.954400
0
LINE
8
Layer 1
10
20.962400
20
210.126000
11
20.962400
21
210.096976
0
LINE
8
Layer 1
10
20.962400
20
210.096976
11
20.771931
21
208.207843
0
LINE
8
Layer 1
10
20.771931
20
208.207843
11
20.224636
21
206.408020
0
LINE
8
Layer 1
10
20.224636
20
206.408020
11
19.341075
21
204.747232
0
LINE
8
Layer 1
10
19.341075
20
204.747232
11
18.141810
21
203.275206
0
LINE
8
Layer 1
10
18.141810
20
203.275206
11
-9.196190
21
175.717006
0
LINE
8
Layer 1
10
-9.196190
20
175.717006
11
-10.595774
21
174.561173
0
LINE
8
Layer 1
10
-10.595774
20
174.561173
11
-12.179710
21
173.710409
0
LINE
8
Layer 1
10
-12.179710
20
173.710409
11
-13.899199
21
173.185043
0
LINE
8
Layer 1
10
-13.899199
20
173.185043
11
-15.705440
21
173.005404
0
LINE
8
Layer 1
10
-15.705440
20
173.005404
11
-17.511681
21
173.185043
0
LINE
8
Layer 1
10
-17.511681
20
173.185043
11
-19.231170
21
173.710409
0
LINE
8
Layer 1
10
-19.231170
20
173.710409
11
-20.815106
21
174.561173
0
LINE
8
Layer 1
10
-20.815106
20
174.561173
11
-22.214690
21
175.717006
0
LINE
8
Layer 1
10
-22.214690
20
175.717006
11
-23.247550
21
176.758166
0
LINE
8
Layer 1
10
-23.247550
20
176.758166
11
-24.405093
21
178.185384
0
LINE
8
Layer 1
10
-24.405093
20
178.185384
11
-25.231909
21
179.765844
0
LINE
8
Layer 1
10
-25.231909
20
179.765844
11
-25.727999
21
181.448465
0
LINE
8
Layer 1
10
-25.727999
20
181.448465
11
-25.893362
21
183.182166
0
LINE
8
Layer 1
10
-25.893362
20
183.182166
11
-25.727999
21
184.915868
0
LINE
8
Layer 1
10
-25.727999
20
184.915868
11
-25.231909
21
186.598488
0
LINE
8
Layer 1
10
-25.231909
20
186.598488
11
-24.405093
21
188.178948
0
LINE
8
Layer 1
10
-24.405093
20
188.178948
11
-23.247550
21
189.606166
0
LINE
8
Layer 1
10
-23.247550
20
189.606166
11
4.714750
21
217.793366
0
LINE
8
Layer 1
10
4.714750
20
217.793366
11
6.070581
21
218.913020
0
LINE
8
Layer 1
10
6.070581
20
218.913020
11
7.604989
21
219.737152
0
LINE
8
Layer 1
10
7.604989
20
219.737152
11
9.270702
21
220.246072
0
LINE
8
Layer 1
10
9.270702
20
220.246072
11
11.020450
21
220.420088
0
LINE
8
Layer 1
10
11.020450
20
220.420088
11
12.770198
21
220.246072
0
LINE
8
Layer 1
10
12.770198
20
220.246072
11
14.435911
21
219.737152
0
LINE
8
Layer 1
10
14.435911
20
219.737152
11
15.970319
21
218.913020
0
LINE
8
Layer 1
10
15.970319
20
218.913020
11
17.326150
21
217.793366
0
LINE
8
Layer 1
10
17.326150
20
217.793366
11
18.141694
21
216.971107
0
LINE
8
Layer 1
10
18.141694
20
216.971107
11
19.344219
21
215.494149
0
LINE
8
Layer 1
10
19.344219
20
215.494149
11
20.228953
21
213.827503
0
LINE
8
Layer 1
10
20.228953
20
213.827503
11
20.775205
21
212.021381
0
LINE
8
Layer 1
10
20.775205
20
212.021381
11
20.962284
21
210.125997
0
LINE
8
Layer 1
10
20.962284
20
210.125997
11
20.962400
21
210.126000
0
LINE
8
Layer 1
10
20.962400
20
135.716400
11
20.962400
21
135.687376
0
LINE
8
Layer 1
10
20.962400
20
135.687376
11
20.771931
21
133.798243
0
LINE
8
Layer 1
10
20.771931
20
133.798243
11
20.224636
21
131.998420
0
LINE
8
Layer 1
10
20.224636
20
131.998420
11
19.341075
21
130.337632
0
LINE
8
Layer 1
10
19.341075
20
130.337632
11
18.141810
21
128.865606
0
LINE
8
Layer 1
10
18.141810
20
128.865606
11
-9.196190
21
101.307406
0
LINE
8
Layer 1
10
-9.196190
20
101.307406
11
-10.595774
21
100.151573
0
LINE
8
Layer 1
10
-10.595774
20
100.151573
11
-12.179710
21
99.300809
0
LINE
8
Layer 1
10
-12.179710
20
99.300809
11
-13.899199
21
98.775443
0
LINE
8
Layer 1
10
-13.899199
20
98.775443
11
-15.705440
21
98.595804
0
LINE
8
Layer 1
10
-15.705440
20
98.595804
11
-17.511681
21
98.775443
0
LINE
8
Layer 1
10
-17.511681
20
98.775443
11
-19.231170
21
99.300809
0
LINE
8
Layer 1
10
-19.231170
20
99.300809
11
-20.815106
21
100.151573
0
LINE
8
Layer 1
10
-20.815106
20
100.151573
11
-22.214690
21
101.307406
0
LINE
8
Layer 1
10
-22.214690
20
101.307406
11
-23.247550
21
102.348566
0
LINE
8
Layer 1
10
-23.247550
20
102.348566
11
-24.405093
21
103.775784
0
LINE
8
Layer 1
10
-24.405093
20
103.775784
11
-25.231909
21
105.356244
0
LINE
8
Layer 1
10
-25.231909
20
105.356244
11
-25.727999
21
107.038865
0
LINE
8
Layer 1
10
-25.727999
20
107.038865
11
-25.893362
21
108.772566
0
LINE
8
Layer 1
10
-25.893362
20
108.772566
11
-25.727999
21
110.506268
0
LINE
8
Layer 1
10
-25.727999
20
110.506268
11
-25.231909
21
112.188888
0
LINE
8
Layer 1
10
-25.231909
20
112.188888
11
-24.405093
21
113.769348
0
LINE
8
Layer 1
10
-24.405093
20
113.769348
11
-23.247550
21
115.196566
0
LINE
8
Layer 1
10
-23.247550
20
115.196566
11
4.714750
21
143.383766
0
LINE
8
Layer 1
10
4.714750
20
143.383766
11
6.070581
21
144.503420
0
LINE
8
Layer 1
10
6.070581
20
144.503420
11
7.604989
21
145.327552
0
LINE
8
Layer 1
10
7.604989
20
145.327552
11
9.270702
21
145.836472
0
LINE
8
Layer 1
10
9.270702
20
145.836472
11
11.020450
21
146.010488
0
LINE
8
Layer 1
10
11.020450
20
146.010488
11
12.770198
21
145.836472
0
LINE
8
Layer 1
10
12.770198
20
145.836472
11
14.435911
21
145.327552
0
LINE
8
Layer 1
10
14.435911
20
145.327552
11
15.970319
21
144.503420
0
LINE
8
Layer 1
10
15.970319
20
144.503420
11
17.326150
21
143.383766
0
LINE
8
Layer 1
10
17.326150
20
143.383766
11
18.141694
21
142.561501
0
LINE
8
Layer 1
10
18.141694
20
142.561501
11
19.344219
21
141.084543
0
LINE
8
Layer 1
10
19.344219
20
141.084543
11
20.228953
21
139.417897
0
LINE
8
Layer 1
10
20.228953
20
139.417897
11
20.775205
21
137.611775
0
LINE
8
Layer 1
10
20.775205
20
137.611775
11
20.962284
21
135.716391
0
LINE
8
Layer 1
10
20.962284
20
135.716391
11
20.962400
21
135.716400
 0 
ENDSEC
 0 
EOF