<?xml version="1.0" encoding="UTF-8" standalone="no"?>
<svg
   xmlns:dc="http://purl.org/dc/elements/1.1/"
   xmlns:cc="http://creativecommons.org/ns#"
   xmlns:rdf="http://www.w3.org/1999/02/22-rdf-syntax-ns#"
   xmlns:svg="http://www.w3.org/2000/svg"
   xmlns="http://www.w3.org/2000/svg"
   xmlns:sodipodi="http://sodipodi.sourceforge.net/DTD/sodipodi-0.dtd"
   xmlns:inkscape="http://www.inkscape.org/namespaces/inkscape"
   width="841mm"
   height="1189mm"
   viewBox="0 0 841 1189"
   version="1.1"
   id="svg1437"
   inkscape:version="1.0.1 (3bc2e813f5, 2020-09-07)"
   sodipodi:docname="boxpouter_grouped_with_opening.svg">
  <defs
     id="defs1432">
    <inkscape:path-effect
       effect="fillet_chamfer"
       id="path-effect2065"
       is_visible="true"
       lpeversion="1"
       satellites_param="F,0,0,1,0,37.869047,0,1 @ F,0,0,1,0,36.285713,0,1 @ F,0,0,1,0,35.524597,0,1 @ F,0,0,1,0,35.151785,0,1"
       unit="px"
       method="auto"
       mode="F"
       radius="152"
       chamfer_steps="1"
       flexible="false"
       use_knot_distance="true"
       apply_no_radius="true"
       apply_with_radius="true"
       only_selected="false"
       hide_knots="false" />
  </defs>
  <sodipodi:namedview
     id="base"
     pagecolor="#ffffff"
     bordercolor="#666666"
     borderopacity="1.0"
     inkscape:pageopacity="0.0"
     inkscape:pageshadow="2"
     inkscape:zoom="0.12374369"
     inkscape:cx="1118.819"
     inkscape:cy="2146.4233"
     inkscape:document-units="in"
     inkscape:document-rotation="0"
     showgrid="false"
     inkscape:window-width="1600"
     inkscape:window-height="838"
     inkscape:window-x="-8"
     inkscape:window-y="-8"
     inkscape:window-maximized="1"
     inkscape:current-layer="svg1437" />
  <metadata
     id="metadata1435">
    <rdf:RDF>
      <cc:Work
         rdf:about="">
        <dc:format>image/svg+xml</dc:format>
        <dc:type
           rdf:resource="http://purl.org/dc/dcmitype/StillImage" />
        <dc:title></dc:title>
      </cc:Work>
    </rdf:RDF>
  </metadata>
  <path
     id="rect2030-4-7-7"
     style="fill:none;fill-rule:evenodd;stroke:#000000;stroke-width:0.264583px;stroke-linecap:butt;stroke-linejoin:miter;stroke-opacity:1"
     d="M 820.65766,383.3784 H 608.01999 v 219.73542 h 212.63767 z m 0,263.65678 H 608.01999 V 866.7706 H 820.65766 Z M 795.79819,444.45994 a 34.45356,34.453623 0 0 1 0,0.10284 34.45356,34.453623 0 0 1 -9.99422,24.17165 l -96.86643,97.64726 a 32.487203,32.487264 0 0 1 -46.12743,0 l -3.65972,-3.68917 a 32.320558,32.320619 0 0 1 0,-45.52435 l 99.07767,-99.87608 a 31.471981,31.472039 0 0 1 44.68617,0 l 2.88974,2.91352 a 34.45356,34.453623 0 0 1 9.99422,24.25433 z m 0,263.65676 a 34.45356,34.453623 0 0 1 0,0.10285 34.45356,34.453623 0 0 1 -9.99422,24.17164 l -96.86643,97.64728 a 32.487203,32.487264 0 0 1 -46.12743,0 l -3.65972,-3.68919 a 32.320558,32.320619 0 0 1 0,-45.52434 l 99.07767,-99.87608 a 31.471981,31.472039 0 0 1 44.68617,0 l 2.88974,2.91352 a 34.45356,34.453623 0 0 1 9.99422,24.25432 z M 578.38666,383.3784 H 365.749 v 219.73542 h 212.63766 z m 0,263.65625 H 365.749 V 866.7706 H 578.38666 Z M 553.5272,444.45994 a 34.45356,34.453623 0 0 1 0,0.10284 34.45356,34.453623 0 0 1 -9.99423,24.17165 l -96.86642,97.64726 a 32.487203,32.487264 0 0 1 -46.12743,0 l -3.65972,-3.68917 a 32.320558,32.320619 0 0 1 0,-45.52435 l 99.07767,-99.87608 a 31.471981,31.472039 0 0 1 44.68617,0 l 2.88973,2.91352 a 34.45356,34.453623 0 0 1 9.99423,24.25433 z m 0,263.65626 a 34.45356,34.453623 0 0 1 0,0.10335 34.45356,34.453623 0 0 1 -9.99423,24.17114 l -96.86642,97.64778 a 32.487203,32.487264 0 0 1 -46.12743,0 l -3.65972,-3.68969 a 32.320558,32.320619 0 0 1 0,-45.52384 l 99.07767,-99.87608 a 31.471981,31.472039 0 0 1 44.68617,0 l 2.88973,2.91301 a 34.45356,34.453623 0 0 1 9.99423,24.25433 z M 341.40681,383.3784 H 128.76915 v 219.73542 h 212.63766 z m 0,263.65625 H 128.76915 V 866.77008 H 341.40681 Z M 316.54735,444.45994 a 34.45356,34.453623 0 0 1 0,0.10284 34.45356,34.453623 0 0 1 -9.99421,24.17165 l -96.86645,97.64726 a 32.487203,32.487264 0 0 1 -46.12743,0 l -3.65971,-3.68917 a 32.320558,32.320619 0 0 1 0,-45.52435 l 99.07767,-99.87608 a 31.471981,31.472039 0 0 1 44.68617,0 l 2.88975,2.91352 a 34.45356,34.453623 0 0 1 9.99421,24.25433 z m 0,263.65626 a 34.45356,34.453623 0 0 1 0,0.10335 34.45356,34.453623 0 0 1 -9.99421,24.17114 l -96.86645,97.64726 a 32.487203,32.487264 0 0 1 -46.12743,0 l -3.65971,-3.68867 a 32.320558,32.320619 0 0 1 0,-45.52487 l 99.07767,-99.87555 a 31.471981,31.472039 0 0 1 44.68617,0 l 2.88975,2.91352 a 34.45356,34.453623 0 0 1 9.99421,24.25382 z M 99.135815,383.3784 H -113.5034 V 603.11382 H 99.135815 Z m 0,263.65625 H -113.5034 V 866.77008 H 99.135815 Z M 74.276359,444.45994 a 34.45356,34.453623 0 0 1 0,0.10284 34.45356,34.453623 0 0 1 -9.994238,24.17165 l -96.866947,97.64726 a 32.487203,32.487264 0 0 1 -46.128437,0 l -3.659743,-3.68917 a 32.320558,32.320619 0 0 1 0,-45.52435 l 99.079234,-99.87608 a 31.471981,31.472039 0 0 1 44.686167,0 l 2.889726,2.91352 a 34.45356,34.453623 0 0 1 9.994238,24.25433 z m 0,263.65626 a 34.45356,34.453623 0 0 1 0,0.10284 34.45356,34.453623 0 0 1 -9.994238,24.17165 l -96.866947,97.64726 a 32.487203,32.487264 0 0 1 -46.128437,0 l -3.659743,-3.68917 a 32.320558,32.320619 0 0 1 0,-45.52437 l 99.079234,-99.87608 a 31.471981,31.472039 0 0 1 44.686167,0 l 2.889726,2.91354 a 34.45356,34.453623 0 0 1 9.994238,24.25433 z" />
</svg>
