999
"DXF R12 Output" (www.mydxf.blogspot.com)
 0 
SECTION
 2 
HEADER
 9 
$ACADVER
 1 
AC1009
 9 
$EXTMIN
 10 
 0 
 20 
 0 
 9 
$EXTMAX
 10 
 8.5 
 20 
 11 
 0 
ENDSEC
 0 
SECTION
 2 
ENTITIES
0
LINE
8
Layer 1
10
-32.033100
20
-19.413800
11
-32.033100
21
-81.428000
0
LINE
8
Layer 1
10
-32.033100
20
-81.428000
11
27.978400
21
-81.428000
0
LINE
8
Layer 1
10
27.978400
20
-81.428000
11
27.978400
21
-19.413800
0
LINE
8
Layer 1
10
27.978400
20
-19.413800
11
-32.033100
21
-19.413800
0
LINE
8
Layer 1
10
-32.033100
20
-19.413800
11
-32.033100
21
-19.413800
0
LINE
8
Layer 1
10
36.341600
20
-19.413800
11
36.341600
21
-81.428000
0
LINE
8
Layer 1
10
36.341600
20
-81.428000
11
96.352700
21
-81.428000
0
LINE
8
Layer 1
10
96.352700
20
-81.428000
11
96.352700
21
-19.413800
0
LINE
8
Layer 1
10
96.352700
20
-19.413800
11
36.341600
21
-19.413800
0
LINE
8
Layer 1
10
36.341600
20
-19.413800
11
36.341600
21
-19.413800
0
LINE
8
Layer 1
10
103.223000
20
-19.413800
11
103.223000
21
-81.428000
0
LINE
8
Layer 1
10
103.223000
20
-81.428000
11
163.234000
21
-81.428000
0
LINE
8
Layer 1
10
163.234000
20
-81.428000
11
163.234000
21
-19.413800
0
LINE
8
Layer 1
10
163.234000
20
-19.413800
11
103.223000
21
-19.413800
0
LINE
8
Layer 1
10
103.223000
20
-19.413800
11
103.223000
21
-19.413800
0
LINE
8
Layer 1
10
171.597000
20
-19.413800
11
171.597000
21
-81.428000
0
LINE
8
Layer 1
10
171.597000
20
-81.428000
11
231.608000
21
-81.428000
0
LINE
8
Layer 1
10
231.608000
20
-81.428000
11
231.608000
21
-19.413800
0
LINE
8
Layer 1
10
231.608000
20
-19.413800
11
171.597000
21
-19.413800
0
LINE
8
Layer 1
10
171.597000
20
-19.413800
11
171.597000
21
-19.413800
0
LINE
8
Layer 1
10
-32.033100
20
-93.823400
11
-32.033100
21
-155.838000
0
LINE
8
Layer 1
10
-32.033100
20
-155.838000
11
27.978400
21
-155.838000
0
LINE
8
Layer 1
10
27.978400
20
-155.838000
11
27.978400
21
-93.823400
0
LINE
8
Layer 1
10
27.978400
20
-93.823400
11
-32.033100
21
-93.823400
0
LINE
8
Layer 1
10
-32.033100
20
-93.823400
11
-32.033100
21
-93.823400
0
LINE
8
Layer 1
10
36.341600
20
-93.823400
11
36.341600
21
-155.838000
0
LINE
8
Layer 1
10
36.341600
20
-155.838000
11
96.352700
21
-155.838000
0
LINE
8
Layer 1
10
96.352700
20
-155.838000
11
96.352700
21
-93.823400
0
LINE
8
Layer 1
10
96.352700
20
-93.823400
11
36.341600
21
-93.823400
0
LINE
8
Layer 1
10
36.341600
20
-93.823400
11
36.341600
21
-93.823400
0
LINE
8
Layer 1
10
103.223000
20
-93.823400
11
103.223000
21
-155.838000
0
LINE
8
Layer 1
10
103.223000
20
-155.838000
11
163.234000
21
-155.838000
0
LINE
8
Layer 1
10
163.234000
20
-155.838000
11
163.234000
21
-93.823400
0
LINE
8
Layer 1
10
163.234000
20
-93.823400
11
103.223000
21
-93.823400
0
LINE
8
Layer 1
10
103.223000
20
-93.823400
11
103.223000
21
-93.823400
0
LINE
8
Layer 1
10
171.597000
20
-93.823600
11
171.597000
21
-155.838000
0
LINE
8
Layer 1
10
171.597000
20
-155.838000
11
231.608000
21
-155.838000
0
LINE
8
Layer 1
10
231.608000
20
-155.838000
11
231.608000
21
-93.823600
0
LINE
8
Layer 1
10
231.608000
20
-93.823600
11
171.597000
21
-93.823600
0
LINE
8
Layer 1
10
171.597000
20
-93.823600
11
171.597000
21
-93.823600
 0 
ENDSEC
 0 
EOF